<svg width="511" height="198" viewBox="0 0 511 198" fill="none" xmlns="http://www.w3.org/2000/svg">
<g id="Group 1">
<path id="Vector 1" d="M33 54C37.3672 70.5588 36.909 85.7804 33.2222 102.444C32.3504 106.385 31.669 110.402 31.0556 114.389C30.9774 114.897 32.9923 104.475 33.4444 102.333C35.1279 94.3616 37.4101 86.4834 39.2222 78.5556C40.3362 73.6819 42.5546 66.6368 46 63C50.6001 58.1443 55.42 57.6867 62 58C71.2663 58.4413 71.9604 78.1736 72 84.1111C72.0624 93.4642 71.301 102.674 71.0556 112C70.955 115.82 69.8656 121.927 72 125.556C78.182 136.065 95.8858 114.151 98.4444 110.111C103.2 102.602 108 95.1896 108 85.9445C108 83.963 108 81.9815 108 80C108 74.8519 108 90.2963 108 95.4445C108 99.4184 105.844 110.863 110.167 113.889C118.237 119.538 134.529 112.391 140.333 106C147.613 97.9841 151.891 88.6247 156.222 79C157.725 75.6596 155.43 71.5584 153 69C149.897 65.7342 148.209 63.4421 143 64.7778C136.241 66.5108 133.452 73.1064 134.056 79.4445C135.061 90.0025 150.747 87.5538 157.722 87.0556C165.67 86.4878 166.081 85.3345 165.389 95.7222C165.334 96.5441 161.6 115.889 164.278 115.889C173.984 115.889 187.158 107.782 194.222 101.222C198.496 97.2539 198.372 91.0774 205 89.4445C211.923 87.7388 223.297 90.1982 228.778 95.2222C229.505 95.8886 231.461 97.8456 231.222 96.8889C230.627 94.5062 219.67 89.5213 217.222 88.4445C213.333 86.733 209.692 86 205.5 86C199.418 86 197.375 92.6024 196 97.6111C193.349 107.268 193.364 113.972 198.444 122.778C201.747 128.502 209.506 133.064 215.944 129.167C219.446 127.048 228.826 116.307 229 111.778C229.099 109.195 229 106.586 229 104C229 102.717 229.217 101.757 229.944 100.667C232.061 97.4925 230 108.296 230 112.111C230 117.035 228.692 121.081 234.667 121.778C242.976 122.747 248.278 117.983 252.056 111.444C255.661 105.205 259 97.5 259 90.1111C259 85.0821 259.172 80.6477 260.444 89.5556C263.424 110.413 265 131.139 265 152.222C265 159.703 267.075 171.37 261.222 177.222C253.126 185.318 242 159.689 242 153.944C242 139.818 246.046 123 263 123C272.01 123 281.48 109.194 284.444 102.111C286.301 97.6761 301.204 65.7012 295.444 64.0556C289.444 62.3411 284 79.1529 284 83C284 87.4043 283.304 91.4148 286.444 94.5556C291.559 99.6702 302.216 102.573 302 111C301.721 121.867 290.737 126 282 126C278.637 126 277.298 123.767 276.222 121C274.888 117.568 281.506 118 283.056 118C291.32 118 295.309 126.017 302.444 128.056C310.095 130.241 320.352 124.269 325 117.556C328.823 112.033 333.75 104.223 334 97.2222C334.18 92.1784 333.717 87.0781 332.889 82.1111C332.177 77.8394 330 73.3379 330 69C330 62.2706 328.076 80.2822 327.778 82.2222C327.116 86.5209 324.963 96.4819 327.556 100.556C331.2 106.283 338.578 110.213 345.556 108.944C352.477 107.686 352 96.8058 352 91.5C352 88.4815 352 85.463 352 82.4445C352 78.923 352 88.9292 352 91C352 93.0741 352 99.2963 352 97.2222C352 92.6296 352 88.037 352 83.4445C352 81.2448 351.043 76.0642 352.222 74C353.43 71.8868 357.948 65.6904 361.222 67C366.738 69.2062 368.675 82.446 369.444 87.6111C370.383 93.9151 370.429 100.869 369.778 107.222C369.695 108.03 367.654 118.509 369.611 118.944C383.169 121.957 384.065 109.069 388.5 98.7222C391.909 90.7684 393.199 73.7278 405.444 76.2222C412.918 77.7446 416.449 84.814 421.222 89.7778C424.17 92.8431 421.231 90.0987 420.056 88.5556C418.066 85.9448 415.774 83.5211 413.222 81.4445C410.891 79.5467 408.228 77.5589 405.778 76.2222C402.993 74.7031 396.411 86.4305 395.5 88.5556C391.942 96.8566 389.699 107.699 396.5 114.5C398.496 116.496 400.857 116 403.5 116C407.959 116 407.986 115.182 411 112C416.946 105.723 415.722 99.6692 417 92C419.124 79.2531 420.765 117.581 422 130.444C423.606 147.166 425 164.622 425 181.389C425 185.868 422.929 192.547 418.222 194.389C412.341 196.69 404.241 192.311 399.444 189.222C391.667 184.215 390.468 170.992 388.722 162.778C386.165 150.744 385.101 135.449 398 129C404.943 125.528 414.622 129.131 421.778 130.222C425.508 130.791 431.377 132.393 434.778 130C441.366 125.364 445.032 114.417 446.222 107C449.049 89.3863 448.706 72.4538 445.5 54.9445C442.856 40.5069 438.624 24.72 433.5 11.0556C432.646 8.77768 431.823 6.69521 432 4.22223C432.6 -4.17975 432.611 21.0742 433.556 29.4445C436.591 56.3322 442 83.0221 442 110.222C442 111.981 442 113.741 442 115.5C442 119.297 441.89 107.894 442.222 104.111C442.973 95.5703 443.057 87.1914 444.778 78.7778C445.464 75.4235 445.469 71.3178 447.778 68.7778C451.921 64.2208 458.605 67.2981 461.944 71.6111C467.062 78.2219 470.498 87.2689 472.444 95.3333C473.369 99.1621 472.111 108.078 474.5 110.944C475.191 111.773 477.673 117.28 477.944 118.5C478.492 120.962 480.162 120.93 481.778 122.222C488.727 127.781 496.007 117.783 499 113.222C504.338 105.088 510.946 91.345 506.444 81.0556C503.383 74.059 496.838 70.118 490.389 66.5C479.983 60.6624 470.296 61.3339 458.611 60.9445C450.496 60.6739 442.668 59.2625 434.5 60.5C425.832 61.8133 417.657 64.8936 409.333 67.4445C391.285 72.9753 373.153 77.8738 355.222 83.7778C343.469 87.6477 330.964 89.5617 318.889 92.2222C300.075 96.3676 280.352 100.264 261.222 102.5C239.912 104.991 218.43 106.98 197 108C174.001 109.095 151.89 115.813 129.5 120.611C93.9923 128.22 59.0357 138.044 23.2778 144.5C16.9414 145.644 9.36914 150 3 150" stroke="black" stroke-width="5" stroke-linecap="round" stroke-linejoin="round"/>
<path id="Vector 2" d="M108 73C108 69.6667 108 66.3333 108 63" stroke="black" stroke-width="5" stroke-linecap="round" stroke-linejoin="round"/>
<path id="Vector 3" d="M259 78C258.472 75.2937 258 72.7438 258 70" stroke="black" stroke-width="5" stroke-linecap="round" stroke-linejoin="round"/>
<path id="Vector 4" d="M329 60C329 57 329 54 329 51" stroke="black" stroke-width="5" stroke-linecap="round" stroke-linejoin="round"/>
</g>
</svg>
