<svg width="399" height="404" viewBox="0 0 399 404" fill="none" xmlns="http://www.w3.org/2000/svg">
<path id="Vector 1" d="M133 299C135.177 275.056 137.229 251.155 142 227.556C146.144 207.06 152.18 187.152 158.444 167.222C171.834 124.623 183.514 81.0754 199.444 39.3333C200.176 37.4155 203.246 23.5538 205.889 30.1111C210.397 41.2977 212.452 53.6118 215 65.3333C218.444 81.177 221.874 97.0246 225.222 112.889C233.078 150.108 242.212 187.609 245.778 225.556C247.494 243.82 249.234 262.935 247 281.222C246.491 285.393 247.941 292.466 242 290.889C235.292 289.108 229.138 285.125 224 280.556C209.003 267.216 196.13 251.09 182.444 236.444C157.723 209.988 134.262 182.172 107.333 157.889C101.591 152.711 91.4997 142 83 141.056C79.1585 140.629 75.4307 149.414 74.3889 151.389C68.7483 162.081 65.5101 173.384 62.8333 185.111C54.7895 220.351 51.8641 255.165 50.6111 291.222C50.1915 303.299 50 315.364 50 327.444C50 331.389 49.2201 327.752 48.8889 324.889C46.0645 300.478 46.8664 275.394 48.5 250.944C51.3438 208.382 59.5453 165.545 75.7778 125.944C81.3721 112.297 88.0102 99.4117 95.3889 86.6667C101.196 76.6367 106.254 65.5911 113.444 56.4444C144.119 17.4243 199.253 -6.17825 247.778 8.22222C281.85 18.3336 317.183 41.0899 339 69.6667C349.336 83.2056 358.941 98.3503 364.778 114.444C371.365 132.61 374.341 152.581 376.667 171.667C379.077 191.444 378.188 210.533 375.222 230.222C371.418 255.474 366.263 280.442 354.556 303.333C346.516 319.052 337.059 336.019 324.889 349C313.67 360.966 299.443 369.041 284.444 375.333C246.935 391.069 207.799 399.384 167.222 400.778C156.837 401.135 146.866 399.79 136.667 397.889C118.047 394.417 99.396 390.463 81.5 384.167C63.4541 377.817 41.7157 370.577 27.5 357C17.542 347.489 13.8687 334.762 10.2222 321.833C6.43611 308.41 2.75173 294.619 4.00001 280.556C5.93088 258.801 11.3296 235.837 26.6667 219.556C39.8597 205.551 57.7604 196.787 75.8889 190.944C95.819 184.521 117.612 186.068 138.167 187.556C164.021 189.427 189.895 192.196 215.722 194.5C275.88 199.866 338.727 201.1 396 180" stroke="black" stroke-width="6" stroke-linecap="round" stroke-linejoin="round"/>
</svg>
