<svg width="417" height="145" viewBox="0 0 417 145" fill="none" xmlns="http://www.w3.org/2000/svg">
<g id="Group 1">
<path id="Vector 1" d="M1.60215 59.9273C0.457436 60.6993 0.155306 62.2531 0.92732 63.3979C1.69933 64.5426 3.25314 64.8447 4.39785 64.0727L1.60215 59.9273ZM350 56C350 57.3807 351.119 58.5 352.5 58.5C353.881 58.5 355 57.3807 355 56H350ZM362.19 74.5L364.221 75.9578L364.315 75.8271L364.391 75.6854L362.19 74.5ZM373.5 53.5L371.405 52.1364L371.348 52.2233L371.299 52.3146L373.5 53.5ZM358 83L355.758 81.8946L360.213 84.1628L358 83ZM413.249 72.1655C414.445 71.4755 414.855 69.9466 414.165 68.7507C413.475 67.5547 411.947 67.1446 410.751 67.8345L413.249 72.1655ZM31.5 70L29.4782 68.5296L29.3759 68.6702L29.2941 68.8235L31.5 70ZM160.5 74.5L160.726 76.9897L160.859 76.9776L160.99 76.9515L160.5 74.5ZM162 114L164.032 115.457L164.121 115.332L164.195 115.197L162 114ZM320.5 113L322.439 114.578L322.536 114.459L322.618 114.329L320.5 113ZM394 22L392.072 20.409L391.982 20.518L391.905 20.6364L394 22ZM396.877 77.8932L396.421 75.435L396.877 77.8932ZM400.871 76.4208L402.12 78.5863L400.871 76.4208ZM385.268 72.9154L387.22 74.4771L385.268 72.9154ZM393.253 38.1423L391.462 36.3989L393.253 38.1423ZM408.971 19.3998L411.324 20.244L408.971 19.3998ZM404.462 26.6221L402.67 24.8787L404.462 26.6221ZM358.657 79.4225L360.688 80.8803L358.657 79.4225ZM301.71 112.916L303.739 114.376L301.71 112.916ZM325.493 93.437L324.462 91.1596L325.493 93.437ZM291.632 126.926L289.603 125.466L291.632 126.926ZM304.37 132.817L302.431 131.238L304.37 132.817ZM300.958 135.235L300.111 132.883L300.958 135.235ZM336.967 72.6664L337.713 75.0526L336.967 72.6664ZM331.465 74.3859L332.211 76.7721L331.465 74.3859ZM327.293 64.492L329.125 66.1931L327.293 64.492ZM334.695 56.8417L332.888 55.1136L334.695 56.8417ZM336.454 55.3321L337.888 57.3801L336.454 55.3321ZM343.744 50.2289L342.311 48.1808L343.744 50.2289ZM293.181 72.9609L291.017 71.7084L293.181 72.9609ZM273.586 68.3657L271.483 67.0138L273.586 68.3657ZM256.829 71.1603L255.97 68.8125L256.829 71.1603ZM262.637 67.8904L261.075 65.9382L262.637 67.8904ZM237.756 71.268L235.625 69.9605L237.756 71.268ZM237.646 73.7928L235.41 74.9109L237.646 73.7928ZM239.382 62.2656L241.666 63.281L239.382 62.2656ZM206.991 82.8348L207.402 85.3008L206.991 82.8348ZM204.538 73.924L203.63 71.595L204.538 73.924ZM217.658 75.4369L219.551 77.0693L217.658 75.4369ZM215.162 47.1966L212.882 46.1707L215.162 47.1966ZM216.908 43.3153L214.628 42.2894L216.908 43.3153ZM219.807 50.9539L217.938 49.2941L219.807 50.9539ZM220.493 49.9628L218.281 48.7985L218.281 48.7985L220.493 49.9628ZM188.038 92.8931L188.314 90.4084L188.038 92.8931ZM136.377 123.975L134.109 122.924L136.377 123.975ZM132.051 133.312L129.782 132.26L132.051 133.312ZM161.188 96.887L162.475 99.0307L161.188 96.887ZM144.512 138.392L146.543 139.848L144.512 138.392ZM140.49 141.155L139.859 138.736L139.859 138.736L140.49 141.155ZM182.646 70.0708L182.156 67.6194L182.646 70.0708ZM142.142 72.6183L142.484 75.0949L142.142 72.6183ZM143.711 72.0054L145.139 74.0576L143.711 72.0054ZM138.842 73.0735L138.501 70.5969L138.842 73.0735ZM153.553 45.9558L154.638 48.2083L153.553 45.9558ZM155.53 45.7061L156.021 43.2546L155.53 45.7061ZM62.7853 62.145L64.1849 64.2165L62.7853 62.145ZM389.11 79.3315L389.565 81.7897L389.11 79.3315ZM387.498 70.1279L389.45 71.6896L387.498 70.1279ZM371.229 56.1638L373.471 57.2691L371.229 56.1638ZM413.595 6.50999L411.242 5.66584L413.595 6.50999ZM333.454 89.8322L334.485 92.1096L333.454 89.8322ZM298.555 136.1L297.708 133.748L298.555 136.1ZM343.065 77.0371L340.947 75.7083L343.065 77.0371ZM298.199 78.6443L299.175 80.9462L298.199 78.6443ZM292.469 61.3378L291.338 59.1079L292.469 61.3378ZM297.084 66.218L294.921 64.9654L297.084 66.218ZM274.581 70.4041L273.451 68.1742L274.581 70.4041ZM274.917 66.2952L277.02 67.6471L274.917 66.2952ZM237.694 66.064L239.978 67.0794L237.694 66.064ZM216.794 69.1413L215.885 66.8124L216.794 69.1413ZM213.748 79.972L211.855 78.3396L213.748 79.972ZM209.359 82.4402L209.77 84.9062L209.359 82.4402ZM222.545 46.0639L220.333 44.8995L222.545 46.0639ZM209.833 62.2701L211.961 63.5833L209.833 62.2701ZM210.211 61.7626L208.341 60.1028L210.211 61.7626ZM189.906 94.5525L192.033 95.8656L189.906 94.5525ZM167.873 92.876L166.587 90.7323L167.873 92.876ZM174.624 91.4027L174.9 88.918L174.624 91.4027ZM138.941 141.559L138.31 139.14L138.941 141.559ZM157.922 46.1844L157.432 48.6359L157.922 46.1844ZM105.672 74.297L104.785 71.9595L105.672 74.297ZM137.209 56.988L139.199 58.5007L137.209 56.988ZM146.645 49.2821L147.729 51.5346L146.645 49.2821ZM106.673 61.2689L108.551 62.9192L106.673 61.2689ZM101.064 67.6511L99.1863 66.0008L101.064 67.6511ZM98.7481 46.7773L101.01 45.7128L98.7481 46.7773ZM99.223 47.7863L96.9609 48.8508L99.223 47.7863ZM105.297 33.8642L105.851 36.302L105.297 33.8642ZM104.9 33.9546L105.454 36.3924L104.9 33.9546ZM100.963 36.4217L102.915 37.9835L100.963 36.4217ZM111.155 45.5098L112.782 47.4079L111.155 45.5098ZM82.8941 68.4265L82.0566 66.071L82.8941 68.4265ZM87.5999 65.7001L85.9729 63.802L87.5999 65.7001ZM67.7346 73.8166L68.5721 76.1721L67.7346 73.8166ZM63.0657 69.7588L60.6538 69.101L63.0657 69.7588ZM237.959 74.4174L235.723 75.5354L237.959 74.4174ZM36.1734 77.2755L36.964 79.6472L36.1734 77.2755ZM147.764 69.186L146.336 67.1337L147.764 69.186ZM242.329 63.8159L244.46 65.1235L242.329 63.8159ZM40.3787 75.8738L41.1693 78.2455L40.3787 75.8738ZM48.0995 72.0679L46.6999 69.9964L48.0995 72.0679ZM37.2684 62.0684L35.2466 60.5979L37.2684 62.0684ZM4.39785 64.0727C8.80512 61.1003 13.1599 57.5834 16.6645 54.7012C18.4351 53.2451 19.9635 51.9718 21.2154 50.972C22.5348 49.9183 23.3163 49.3599 23.6535 49.1869C23.7265 49.1495 23.6325 49.2089 23.4277 49.2538C23.3182 49.2779 22.4696 49.4651 21.6276 48.8385C20.6872 48.1387 20.6795 47.1459 20.6912 46.9137C20.705 46.6375 20.7734 46.4912 20.7437 46.571C20.6115 46.9265 20.0618 47.9226 18.7364 49.9127C16.1919 53.7333 11.3754 60.3744 3.49153 71.0114L7.50847 73.9886C15.3746 63.3756 20.2706 56.6292 22.898 52.6842C24.1585 50.7914 25.0596 49.3102 25.4301 48.3137C25.5262 48.0556 25.661 47.6416 25.6849 47.1638C25.7066 46.7298 25.6527 45.6013 24.6127 44.8273C23.6711 44.1266 22.6694 44.3013 22.3563 44.37C21.9481 44.4595 21.6 44.6208 21.3715 44.7381C20.5024 45.1839 19.3168 46.0895 18.0952 47.0651C16.806 48.0946 15.2196 49.4159 13.4886 50.8394C9.99013 53.7166 5.79488 57.0997 1.60215 59.9273L4.39785 64.0727ZM106.558 76.6345L132.387 66.8375L130.613 62.1625L104.785 71.9595L106.558 76.6345ZM192.033 95.8656L211.961 63.5833L207.706 60.9569L187.778 93.2393L192.033 95.8656ZM275.711 72.634L293.599 63.5678L291.338 59.1079L273.451 68.1742L275.711 72.634ZM350 53.5V56H355V53.5H350ZM364.391 75.6854L375.701 54.6854L371.299 52.3146L359.989 73.3146L364.391 75.6854ZM368.987 55.0584L355.758 81.8946L360.242 84.1054L373.471 57.2691L368.987 55.0584ZM14.0239 68.6954L34.5434 59.2719L32.4566 54.7281L11.9372 64.1516L14.0239 68.6954ZM36.964 79.6472L41.1693 78.2455L39.5882 73.502L35.3828 74.9038L36.964 79.6472ZM49.4992 74.1393L64.1849 64.2165L61.3856 60.0735L46.6999 69.9964L49.4992 74.1393ZM35.2466 60.5979L29.4782 68.5296L33.5218 71.4704L39.2903 63.5388L35.2466 60.5979ZM29.2941 68.8235L28.7248 69.891L33.1366 72.244L33.7059 71.1765L29.2941 68.8235ZM62.6256 61.8711L60.6538 69.101L65.4776 70.4166L67.4494 63.1867L62.6256 61.8711ZM60.4999 70.25V70.475H65.4999V70.25H60.4999ZM68.5721 76.1721L83.7316 70.7821L82.0566 66.071L66.897 71.461L68.5721 76.1721ZM89.2269 67.5982L112.782 47.4079L109.528 43.6117L85.9729 63.802L89.2269 67.5982ZM104.743 31.4264L104.346 31.5168L105.454 36.3924L105.851 36.302L104.743 31.4264ZM99.0103 34.86L97.846 36.3154L101.75 39.4389L102.915 37.9835L99.0103 34.86ZM96.4861 47.8417L96.9609 48.8508L101.485 46.7218L101.01 45.7128L96.4861 47.8417ZM104.795 59.6187L99.1863 66.0008L102.942 69.3014L108.551 62.9192L104.795 59.6187ZM133.49 66.0127L139.199 58.5007L135.219 55.4752L129.509 62.9873L133.49 66.0127ZM147.729 51.5346L154.638 48.2083L152.469 43.7033L145.56 47.0296L147.729 51.5346ZM155.04 48.1575L157.432 48.6359L158.412 43.733L156.021 43.2546L155.04 48.1575ZM139.184 75.55L142.484 75.0949L141.8 70.1418L138.501 70.5969L139.184 75.55ZM145.139 74.0576L149.191 71.2383L146.336 67.1337L142.283 69.9531L145.139 74.0576ZM153.588 77.6387L160.726 76.9897L160.274 72.0103L153.135 72.6592L153.588 77.6387ZM160.99 76.9515L183.136 72.5223L182.156 67.6194L160.01 72.0485L160.99 76.9515ZM183.081 70.1314L159.805 112.803L164.195 115.197L187.47 72.5257L183.081 70.1314ZM159.968 112.543L142.48 136.935L146.543 139.848L164.032 115.457L159.968 112.543ZM139.859 138.736L138.31 139.14L139.572 143.978L141.121 143.574L139.859 138.736ZM162.475 99.0307L169.16 95.0197L166.587 90.7323L159.902 94.7433L162.475 99.0307ZM134.319 134.363L138.645 125.027L134.109 122.924L129.782 132.26L134.319 134.363ZM150.888 108.582L157.811 102.45L154.496 98.7072L147.573 104.839L150.888 108.582ZM174.348 93.8874L187.762 95.3778L188.314 90.4084L174.9 88.918L174.348 93.8874ZM212.08 63.4225L221.677 52.6138L217.938 49.2941L208.341 60.1028L212.08 63.4225ZM222.705 51.1272L224.758 47.2283L220.333 44.8995L218.281 48.7985L222.705 51.1272ZM214.628 42.2894L212.882 46.1707L217.441 48.2225L219.188 44.3413L214.628 42.2894ZM215.764 73.8046L211.855 78.3396L215.642 81.6043L219.551 77.0693L215.764 73.8046ZM205.447 76.2529L217.703 71.4703L215.885 66.8124L203.63 71.595L205.447 76.2529ZM208.948 79.9742L206.58 80.3688L207.402 85.3008L209.77 84.9062L208.948 79.9742ZM239.978 67.0794L241.666 63.281L237.097 61.2503L235.409 65.0487L239.978 67.0794ZM240.198 62.5084L235.625 69.9605L239.887 72.5755L244.46 65.1235L240.198 62.5084ZM235.41 74.9109L235.723 75.5354L240.195 73.2993L239.882 72.6748L235.41 74.9109ZM243.596 78.6637L257.687 73.5081L255.97 68.8125L241.878 73.968L243.596 78.6637ZM272.814 64.9433L271.483 67.0138L275.689 69.7176L277.02 67.6471L272.814 64.9433ZM294.921 64.9654L291.017 71.7084L295.344 74.2135L299.248 67.4706L294.921 64.9654ZM299.175 80.9462L325.475 69.8019L323.525 65.1981L297.224 76.3424L299.175 80.9462ZM326.307 69.2281L336.502 58.5697L332.888 55.1136L322.693 65.7719L326.307 69.2281ZM337.888 57.3801L345.178 52.277L342.311 48.1808L335.021 53.284L337.888 57.3801ZM325.461 62.7908L322.668 65.7989L326.332 69.2011L329.125 66.1931L325.461 62.7908ZM332.211 76.7721L337.713 75.0526L336.222 70.2802L330.719 71.9997L332.211 76.7721ZM340.947 75.7083L318.382 111.671L322.618 114.329L345.183 78.3658L340.947 75.7083ZM318.561 111.422L302.431 131.238L306.309 134.395L322.439 114.578L318.561 111.422ZM300.111 132.883L297.708 133.748L299.402 138.452L301.805 137.587L300.111 132.883ZM293.662 128.386L303.739 114.376L299.68 111.456L289.603 125.466L293.662 128.386ZM326.525 95.7144L334.485 92.1096L332.423 87.5548L324.462 91.1596L326.525 95.7144ZM360.688 80.8803L364.221 75.9578L360.159 73.0422L356.626 77.9647L360.688 80.8803ZM411.242 5.66584L406.618 18.5557L411.324 20.244L415.948 7.35413L411.242 5.66584ZM402.67 24.8787L391.462 36.3989L395.045 39.8857L406.254 28.3655L402.67 24.8787ZM375.595 54.8636L396.095 23.3636L391.905 20.6364L371.405 52.1364L375.595 54.8636ZM395.928 23.591L410.884 5.46264L407.027 2.28072L392.072 20.409L395.928 23.591ZM360.213 84.1628L375.713 54.6628L371.287 52.3372L355.787 81.8372L360.213 84.1628ZM374.354 55.8495L375.993 55.2536L374.284 50.5547L372.646 51.1505L374.354 55.8495ZM385.545 68.5662L383.316 71.3536L387.22 74.4771L389.45 71.6896L385.545 68.5662ZM389.565 81.7897L397.332 80.3514L396.421 75.435L388.655 76.8733L389.565 81.7897ZM402.12 78.5863L413.249 72.1655L410.751 67.8345L399.621 74.2554L402.12 78.5863ZM264.199 69.8425L271.562 63.9522L268.438 60.0478L261.075 65.9382L264.199 69.8425ZM397.332 80.3514C399.017 80.0394 400.636 79.4425 402.12 78.5863L399.621 74.2554C398.629 74.8276 397.547 75.2265 396.421 75.435L397.332 80.3514ZM383.316 71.3536C382.02 72.9732 381.576 75.1145 382.122 77.1155L386.946 75.8001C386.821 75.3406 386.922 74.849 387.22 74.4771L383.316 71.3536ZM410.884 5.46264C410.952 5.38059 411.071 5.3626 411.16 5.4209L413.9 1.23859C411.678 -0.216832 408.718 0.232142 407.027 2.28072L410.884 5.46264ZM391.462 36.3989C389.236 38.6868 386.547 40.474 383.576 41.6412L385.404 46.2949C389.037 44.8679 392.324 42.6829 395.045 39.8857L391.462 36.3989ZM406.618 18.5557C405.769 20.9213 404.423 23.0774 402.67 24.8787L406.254 28.3655C408.505 26.0518 410.234 23.2824 411.324 20.244L406.618 18.5557ZM341.941 90.5C349.375 90.5 356.353 86.9191 360.688 80.8803L356.626 77.9647C353.23 82.695 347.764 85.5 341.941 85.5V90.5ZM303.739 114.376C309.571 106.269 317.427 99.8339 326.525 95.7144L324.462 91.1596C314.568 95.64 306.022 102.639 299.68 111.456L303.739 114.376ZM293 130.439C293 129.702 293.232 128.984 293.662 128.386L289.603 125.466C288.561 126.915 288 128.654 288 130.439H293ZM302.431 131.238C301.822 131.987 301.02 132.556 300.111 132.883L301.805 137.587C303.568 136.952 305.126 135.849 306.309 134.395L302.431 131.238ZM337.713 75.0526C338.311 74.8657 338.877 74.5876 339.391 74.2282L336.523 70.132C336.431 70.1966 336.329 70.2466 336.222 70.2802L337.713 75.0526ZM322.105 66.7816C320.252 72.9583 326.056 78.6956 332.211 76.7721L330.719 71.9997C328.39 72.7277 326.193 70.5562 326.895 68.2184L322.105 66.7816ZM352.5 51C342.24 51 332.443 55.2722 325.461 62.7908L329.125 66.1931C335.161 59.6933 343.63 56 352.5 56V51ZM336.502 58.5697C336.923 58.1286 337.388 57.7302 337.888 57.3801L335.021 53.284C334.251 53.8224 333.537 54.4352 332.888 55.1136L336.502 58.5697ZM354.925 52.8937C353.536 47.3347 347.005 44.8948 342.311 48.1808L345.178 52.277C347 51.0015 349.535 51.9485 350.075 54.1063L354.925 52.8937ZM291.017 71.7084C289.833 73.7535 289.853 76.2802 291.068 78.3066L295.356 75.7341C295.076 75.2671 295.071 74.6848 295.344 74.2135L291.017 71.7084ZM271.483 67.0138C271.557 66.8986 271.648 66.7949 271.752 66.7058L275.006 70.502C275.27 70.2751 275.501 70.0109 275.689 69.7176L271.483 67.0138ZM257.687 73.5081C260.042 72.6467 262.241 71.4087 264.199 69.8425L261.075 65.9382C259.54 67.1663 257.816 68.137 255.97 68.8125L257.687 73.5081ZM235.625 69.9605C234.703 71.4627 234.622 73.3344 235.41 74.9109L239.882 72.6748C239.867 72.6432 239.868 72.6057 239.887 72.5755L235.625 69.9605ZM241.666 63.281C241.628 63.3686 241.574 63.4487 241.508 63.518L237.894 60.0619C237.562 60.4091 237.293 60.8112 237.097 61.2503L241.666 63.281ZM206.58 80.3688C205.524 80.5449 204.499 79.9147 204.179 78.8921L199.407 80.3836C200.471 83.7886 203.883 85.8873 207.402 85.3008L206.58 80.3688ZM203.63 71.595C200.132 72.9601 198.287 76.7996 199.407 80.3836L204.179 78.8921C203.843 77.8159 204.397 76.6628 205.447 76.2529L203.63 71.595ZM215.482 61.5927C218.691 64.9904 218.813 70.2679 215.764 73.8046L219.551 77.0693C224.277 71.588 224.083 63.4179 219.117 58.1596L215.482 61.5927ZM212.882 46.1707C211.212 49.882 211.232 54.135 212.937 57.8302L217.477 55.735C216.378 53.3541 216.365 50.6138 217.441 48.2225L212.882 46.1707ZM218.178 39.1946C216.6 39.6588 215.303 40.7892 214.628 42.2894L219.188 44.3413C219.264 44.1717 219.411 44.0439 219.589 43.9914L218.178 39.1946ZM221.677 52.6138C222.078 52.1615 222.424 51.6624 222.705 51.1272L218.281 48.7985C218.187 48.9769 218.072 49.1433 217.938 49.2941L221.677 52.6138ZM187.762 95.3778C186.581 95.2466 185.859 94.0167 186.32 92.922L190.928 94.8623C191.764 92.877 190.455 90.6463 188.314 90.4084L187.762 95.3778ZM138.645 125.027C141.55 118.76 145.718 113.161 150.888 108.582L147.573 104.839C141.887 109.875 137.303 116.032 134.109 122.924L138.645 125.027ZM134 135.81C134 135.31 134.109 134.816 134.319 134.363L129.782 132.26C129.267 133.373 129 134.584 129 135.81H134ZM159.902 94.7433C157.982 95.8954 156.172 97.2224 154.496 98.7072L157.811 102.45C159.257 101.169 160.818 100.025 162.475 99.0307L159.902 94.7433ZM142.48 136.935C141.843 137.823 140.916 138.46 139.859 138.736L141.121 143.574C143.308 143.003 145.226 141.685 146.543 139.848L142.48 136.935ZM181.577 67.9131C181.739 67.7642 181.94 67.6626 182.156 67.6194L183.136 72.5223C183.816 72.3864 184.445 72.0671 184.955 71.5989L181.577 67.9131ZM142.484 75.0949C143.438 74.9633 144.348 74.6078 145.139 74.0576L142.283 69.9531C142.139 70.0532 141.974 70.1178 141.8 70.1418L142.484 75.0949ZM129.105 63.7817C127.179 70.2038 132.542 76.4662 139.184 75.55L138.501 70.5969C135.465 71.0156 133.014 68.1535 133.894 65.2183L129.105 63.7817ZM154.638 48.2083C154.763 48.1481 154.904 48.1303 155.04 48.1575L156.021 43.2546C154.819 43.0144 153.572 43.1719 152.469 43.7033L154.638 48.2083ZM60.9116 60.6013C61.0239 60.3892 61.1867 60.2079 61.3856 60.0735L64.1849 64.2165C64.6656 63.8917 65.0591 63.4536 65.3305 62.9408L60.9116 60.6013ZM34.7902 75C33.3754 75 32.4708 73.4923 33.1366 72.244L28.7248 69.891C26.2827 74.4699 29.6008 80 34.7902 80V75ZM7.50983 73.9868C9.20017 71.7018 11.441 69.8816 14.0239 68.6954L11.9372 64.1516C8.58789 65.6898 5.68208 68.0502 3.49017 71.0132L7.50983 73.9868ZM382.122 77.1155C383.01 80.3721 386.246 82.4043 389.565 81.7897L388.655 76.8733C387.893 77.0144 387.15 76.5478 386.946 75.8001L382.122 77.1155ZM375.993 55.2536C384.075 52.3148 390.918 61.8511 385.545 68.5662L389.45 71.6896C397.979 61.0287 387.115 45.889 374.284 50.5547L375.993 55.2536ZM373.471 57.2691C375.944 52.253 380.199 48.3398 385.404 46.2949L383.576 41.6412C377.212 44.1413 372.01 48.9256 368.987 55.0584L373.471 57.2691ZM415.948 7.35413C416.761 5.08723 415.914 2.55842 413.9 1.23859L411.16 5.4209C411.24 5.47376 411.274 5.57505 411.242 5.66584L415.948 7.35413ZM334.485 92.1096C336.828 91.0487 339.37 90.5 341.941 90.5V85.5C338.658 85.5 335.413 86.2005 332.423 87.5548L334.485 92.1096ZM297.708 133.748C295.416 134.573 293 132.875 293 130.439H288C288 136.338 293.852 140.451 299.402 138.452L297.708 133.748ZM339.391 74.2282C339.698 74.0132 339.939 73.9866 340.119 74.0073C340.33 74.0313 340.568 74.1362 340.774 74.3318C340.98 74.5273 341.097 74.7602 341.131 74.9693C341.161 75.1487 341.146 75.3908 340.947 75.7083L345.183 78.3658C348.715 72.7358 341.968 66.3205 336.523 70.132L339.391 74.2282ZM291.068 78.3066C292.735 81.084 296.193 82.2099 299.175 80.9462L297.224 76.3424C296.537 76.6336 295.74 76.3742 295.356 75.7341L291.068 78.3066ZM293.599 63.5678C294.489 63.1164 295.421 64.1013 294.921 64.9654L299.248 67.4706C302.241 62.3003 296.667 56.407 291.338 59.1079L293.599 63.5678ZM273.451 68.1742C273.731 68.0319 274.123 67.9778 274.516 68.1003C274.869 68.2106 275.114 68.4287 275.261 68.6486C275.407 68.8685 275.515 69.178 275.482 69.5468C275.445 69.9559 275.245 70.2973 275.006 70.502L271.752 66.7058C268.528 69.4687 271.925 74.5533 275.711 72.634L273.451 68.1742ZM277.02 67.6471C280.63 62.0323 273.456 55.7661 268.378 60.0979L271.622 63.9021C271.868 63.6925 272.043 63.6736 272.152 63.679C272.298 63.6863 272.49 63.753 272.668 63.9082C272.845 64.0634 272.937 64.2444 272.964 64.3883C272.984 64.496 272.989 64.6717 272.814 64.9433L277.02 67.6471ZM223.455 72.0394C229.32 75.7929 237.15 73.4423 239.978 67.0794L235.409 65.0487C233.825 68.6142 229.437 69.9314 226.15 67.8281L223.455 72.0394ZM226.15 67.8281C223.088 65.868 219.272 65.4905 215.885 66.8124L217.703 71.4703C219.601 70.7296 221.739 70.9411 223.455 72.0394L226.15 67.8281ZM211.855 78.3396C211.107 79.2075 210.078 79.7858 208.948 79.9742L209.77 84.9062C212.053 84.5257 214.131 83.3574 215.642 81.6043L211.855 78.3396ZM212.937 57.8302C213.576 59.2139 214.436 60.4852 215.482 61.5927L219.117 58.1596C218.443 57.4456 217.888 56.626 217.477 55.735L212.937 57.8302ZM224.758 47.2283C227.078 42.8197 222.958 37.7888 218.178 39.1946L219.589 43.9914C220.129 43.8325 220.595 44.4012 220.333 44.8995L224.758 47.2283ZM211.961 63.5833C211.996 63.5263 212.036 63.4725 212.08 63.4225L208.341 60.1028C208.105 60.3686 207.893 60.6544 207.706 60.9569L211.961 63.5833ZM187.778 93.2393C188.004 92.8738 188.404 92.5596 188.912 92.4458C189.374 92.3422 189.792 92.4322 190.105 92.593C190.417 92.7539 190.733 93.0423 190.917 93.4785C191.119 93.9581 191.095 94.4665 190.928 94.8623L186.32 92.922C184.777 96.5877 189.944 99.2502 192.033 95.8656L187.778 93.2393ZM169.16 95.0197C170.718 94.0844 172.541 93.6866 174.348 93.8874L174.9 88.918C172.005 88.5963 169.085 89.2337 166.587 90.7323L169.16 95.0197ZM138.31 139.14C136.13 139.709 134 138.063 134 135.81H129C129 141.337 134.224 145.373 139.572 143.978L138.31 139.14ZM184.955 71.5989C184.768 71.7706 184.468 71.9058 184.125 71.9047C183.816 71.9038 183.568 71.7942 183.396 71.6596C183.224 71.5251 183.058 71.3107 182.983 71.011C182.9 70.6779 182.959 70.3545 183.081 70.1314L187.47 72.5257C189.523 68.7629 184.736 65.0169 181.577 67.9131L184.955 71.5989ZM159.618 52.7361C163.707 50.6915 162.895 44.6296 158.412 43.733L157.432 48.6359C157.439 48.6373 157.423 48.6349 157.396 48.6189C157.369 48.6033 157.343 48.5822 157.322 48.5588C157.283 48.5146 157.276 48.4802 157.274 48.4677C157.272 48.4552 157.27 48.42 157.297 48.3671C157.31 48.339 157.33 48.312 157.352 48.2898C157.374 48.2671 157.389 48.2606 157.382 48.2639L159.618 52.7361ZM104.785 71.9595C104.046 72.2397 103.212 71.9626 102.788 71.296L98.5696 73.9803C100.267 76.647 103.603 77.7555 106.558 76.6345L104.785 71.9595ZM139.199 58.5007C141.452 55.5369 144.375 53.1496 147.729 51.5346L145.56 47.0296C141.494 48.9876 137.95 51.882 135.219 55.4752L139.199 58.5007ZM102.86 53.6104C105.571 54.2359 106.631 57.529 104.795 59.6187L108.551 62.9192C112.885 57.9873 110.382 50.2148 103.984 48.7384L102.86 53.6104ZM99.1863 66.0008C97.2294 68.2277 96.9781 71.4793 98.5696 73.9803L102.788 71.296C102.39 70.6708 102.453 69.858 102.942 69.3014L99.1863 66.0008ZM97.846 36.3154C95.2315 39.5837 94.7039 44.0547 96.4861 47.8417L101.01 45.7128C100.04 43.6514 100.327 41.2178 101.75 39.4389L97.846 36.3154ZM96.9609 48.8508C98.0937 51.2579 100.268 53.0122 102.86 53.6104L103.984 48.7384C102.886 48.485 101.965 47.7417 101.485 46.7218L96.9609 48.8508ZM116 40.4118C116 34.4986 110.509 30.1159 104.743 31.4264L105.851 36.302C108.489 35.7027 111 37.7072 111 40.4118H116ZM104.346 31.5168C102.24 31.9953 100.359 33.1739 99.0103 34.86L102.915 37.9835C103.557 37.1811 104.452 36.6202 105.454 36.3924L104.346 31.5168ZM111 40.4118C111 41.6421 110.462 42.811 109.528 43.6117L112.782 47.4079C114.825 45.6573 116 43.1017 116 40.4118H111ZM83.7316 70.7821C85.7432 70.0669 87.6059 68.9876 89.2269 67.5982L85.9729 63.802C84.8177 64.7921 83.4902 65.5613 82.0566 66.071L83.7316 70.7821ZM60.4999 70.475C60.4999 74.6527 64.6357 77.5717 68.5721 76.1721L66.897 71.461C66.2157 71.7033 65.4999 71.1981 65.4999 70.475H60.4999ZM60.6538 69.101C60.5516 69.4755 60.4999 69.8619 60.4999 70.25H65.4999C65.4999 70.3063 65.4924 70.3623 65.4776 70.4166L60.6538 69.101ZM65.3305 62.9408C65.1757 63.2333 64.873 63.5145 64.465 63.6436C64.0968 63.7601 63.7567 63.7187 63.4992 63.6169C63.2417 63.5151 62.9653 63.3127 62.7764 62.9759C62.567 62.6025 62.5385 62.1905 62.6256 61.8711L67.4494 63.1867C68.5603 59.1134 62.8871 56.8699 60.9116 60.6013L65.3305 62.9408ZM148.828 70.9357C147.319 74.2558 149.956 77.9689 153.588 77.6387L153.135 72.6592C153.163 72.6567 153.214 72.6622 153.266 72.6872C153.311 72.7089 153.34 72.7368 153.357 72.7614C153.374 72.786 153.391 72.8221 153.397 72.8719C153.403 72.9292 153.392 72.9793 153.38 73.0047L148.828 70.9357ZM235.723 75.5354C237.169 78.4288 240.558 79.7751 243.596 78.6637L241.878 73.968C241.228 74.2056 240.504 73.9178 240.195 73.2993L235.723 75.5354ZM34.7902 80C35.529 80 36.263 79.8809 36.964 79.6472L35.3828 74.9038C35.1917 74.9675 34.9916 75 34.7902 75V80ZM153.38 73.0047C155.38 68.6051 150.303 64.3739 146.336 67.1337L149.191 71.2383C149.198 71.2335 149.182 71.246 149.142 71.2568C149.103 71.2674 149.061 71.2712 149.021 71.2681C148.945 71.2622 148.907 71.2359 148.895 71.2253C148.882 71.2148 148.849 71.1826 148.83 71.1091C148.82 71.0702 148.816 71.0278 148.819 70.9877C148.823 70.9467 148.832 70.928 148.828 70.9357L153.38 73.0047ZM241.508 63.518C241.409 63.6206 241.193 63.7483 240.911 63.7562C240.673 63.7628 240.502 63.6811 240.399 63.6018C240.296 63.5225 240.174 63.3779 240.119 63.1454C240.055 62.8716 240.124 62.6294 240.198 62.5084L244.46 65.1235C247.073 60.8652 241.348 56.4515 237.894 60.0619L241.508 63.518ZM41.1693 78.2455C44.1198 77.262 46.9222 75.8805 49.4992 74.1393L46.6999 69.9964C44.4998 71.483 42.1072 72.6624 39.5882 73.502L41.1693 78.2455ZM34.3259 59.3596C34.5611 59.2773 34.724 59.297 34.8427 59.3375C34.9804 59.3844 35.1262 59.4852 35.2415 59.6403C35.3568 59.7954 35.4114 59.964 35.4166 60.1094C35.4212 60.2347 35.3932 60.3964 35.2466 60.5979L39.2903 63.5388C42.6398 58.9331 38.0493 52.759 32.6741 54.6404L34.3259 59.3596Z" fill="black"/>
<path id="Vector 2" d="M66.3318 48.8682C64.5538 47.7841 62.8427 46.7485 62.8427 44.5069C62.8427 42.2093 62.9432 41.0177 65.4353 41.0177C67.9586 41.0177 74.6184 39.9612 74.6184 44.0707C74.6184 46.5737 73.3951 50.0023 70.257 50.1767C69.1743 50.2368 68.0706 50.1767 66.986 50.1767C65.0234 50.1767 64.1511 45.6622 64.1511 44.0707" stroke="black" stroke-width="5" stroke-linecap="round" stroke-linejoin="round"/>
<path id="Vector 3" d="M190.195 60.644C187.591 59.5643 186.706 58.7377 186.706 55.8465C186.706 54.4583 186.423 52.8733 187.36 51.7274C189.899 48.625 192.117 50.8754 194.557 52.4543C199.157 55.4308 190.666 64.4037 188.451 61.0801" stroke="black" stroke-width="5" stroke-linecap="round" stroke-linejoin="round"/>
<path id="Vector 4" d="M249.074 51.9212C246.238 51.852 245.641 51.4249 244.276 49.2075C243.482 47.9171 243.232 44.8325 243.84 43.465C244.823 41.2542 248.613 41.0177 250.6 41.0177C253.023 41.0177 254.945 43.3258 255.713 45.4761C256.521 47.7381 256.587 49.6277 255.18 51.582C254.436 52.6154 252.275 55.1109 251.037 55.3861C247.341 56.2074 245.585 51.3034 245.585 48.4321" stroke="black" stroke-width="5" stroke-linecap="round" stroke-linejoin="round"/>
</g>
</svg>
