<svg width="560" height="794" viewBox="0 0 560 794" fill="none" xmlns="http://www.w3.org/2000/svg">
<g id="2 1">
<g id="group1">
<path id="path24" d="M29.5516 265.715C30.3383 265.44 31.7922 267.706 33.9134 272.514C36.0345 277.321 37.0951 279.725 37.0951 279.725C37.0951 279.725 37.5038 282.24 38.3211 287.27C39.1384 292.301 39.6166 296.27 39.7557 299.178C39.8948 302.086 40.0514 304.589 40.2254 306.688C40.3994 308.787 40.3986 311.027 40.223 313.408C40.0474 315.79 39.8708 317.869 39.6933 319.647C39.5158 321.425 39.3376 322.994 39.1587 324.353C38.9798 325.712 38.6752 327.116 38.2451 328.565C37.815 330.015 37.4953 331.177 37.2859 332.053C37.0764 332.928 36.8612 333.714 36.6401 334.41C36.419 335.106 36.1694 335.722 35.8913 336.26C35.6132 336.797 35.519 337.023 35.6086 336.936C35.6981 336.849 35.7433 336.83 35.7442 336.88C35.7451 336.93 35.5372 337.372 35.1205 338.205C34.4955 339.455 31.9955 339.455 31.3705 338.205C30.9538 337.372 30.7455 336.867 30.7455 336.691C30.7455 336.867 30.7455 336.867 30.7455 336.691C30.7455 336.515 30.6859 336.352 30.5668 336.203C30.4477 336.053 30.3597 335.509 30.303 334.571C30.2462 333.632 30.1655 332.616 30.0609 331.521C29.9563 330.426 29.8688 329.104 29.7983 327.555C29.7278 326.005 29.6922 324.254 29.6914 322.302C29.6905 320.349 29.6901 318.21 29.6901 315.884C29.6901 313.557 29.8163 311.092 30.0686 308.489C30.3209 305.885 30.4607 303.469 30.488 301.241C30.5154 299.013 30.6352 296.748 30.8475 294.446C31.0598 292.144 31.3692 289.946 31.7755 287.852C32.1818 285.758 32.5796 283.826 32.9689 282.056C33.3582 280.286 33.8361 278.433 34.4026 276.495C34.9691 274.558 35.7644 272.658 36.7885 270.796C37.8126 268.935 38.8522 267.203 39.9074 265.602C40.9626 264.001 42.1069 262.618 43.3404 261.454C44.5739 260.289 45.8134 259.291 47.0587 258.458C48.304 257.626 49.5873 256.968 50.9088 256.484C52.2303 256.001 53.7373 255.92 55.4298 256.241C57.1224 256.563 58.5529 257.02 59.7212 257.613C60.8896 258.206 62.0302 258.93 63.143 259.787C64.2559 260.644 65.3583 261.713 66.4504 262.993C67.5425 264.274 68.5796 265.639 69.5616 267.087C70.5436 268.535 71.3389 270.315 71.9474 272.428C72.5559 274.541 73.0897 277.023 73.5486 279.875C74.0075 282.727 74.0778 285.849 73.7596 289.242C73.4415 292.635 72.8854 295.894 72.0914 299.019C71.2974 302.144 70.5063 304.855 69.7182 307.152C68.93 309.449 68.295 311.601 67.8131 313.607C67.3312 315.614 66.8077 317.583 66.2427 319.516C65.6777 321.449 65.3785 323.163 65.3452 324.658C65.3119 326.152 65.3739 327.54 65.5314 328.821C65.6888 330.101 65.8794 331.325 66.1033 332.491C66.3271 333.658 66.5819 334.432 66.8678 334.815C67.1536 335.198 67.476 335.43 67.8351 335.511C68.1942 335.593 68.7275 335.715 69.4349 335.879C70.1424 336.043 70.8175 336.027 71.4603 335.83C72.1031 335.634 72.8844 335.294 73.8042 334.81C74.7239 334.326 75.6826 333.646 76.6802 332.77C77.6778 331.894 78.5637 330.982 79.3378 330.034C80.1119 329.087 80.931 327.941 81.7951 326.599C82.6592 325.256 83.5742 323.879 84.5403 322.468C85.5064 321.057 86.3388 319.463 87.0375 317.687C87.7362 315.912 88.3393 314.094 88.8468 312.236C89.3543 310.377 89.8996 308.779 90.4827 307.442C91.0658 306.104 91.5359 304.846 91.8929 303.667C92.25 302.488 92.5252 301.441 92.7185 300.524C92.9118 299.608 93.1093 298.734 93.311 297.904C93.5126 297.074 93.7529 296.32 94.032 295.643C94.311 294.966 94.3982 294.764 94.2937 295.036C94.1892 295.308 94.1258 295.282 94.1036 294.959C94.0814 294.636 94.0703 294.475 94.0703 294.475C94.0703 294.475 94.2786 294.058 94.6953 293.225C95.3203 291.975 97.8203 291.975 98.4453 293.225C98.862 294.058 99.0703 294.911 99.0703 295.785C99.0703 294.911 99.0703 294.911 99.0703 295.785C99.0703 296.658 99.0348 297.744 98.9639 299.043C98.893 300.341 98.6485 302.003 98.2306 304.029C97.8127 306.055 97.5053 308.066 97.3086 310.063C97.1119 312.06 97.0046 314.173 96.9865 316.402C96.9684 318.631 97.1509 320.913 97.5338 323.249C97.9167 325.586 98.2907 327.524 98.656 329.066C99.0212 330.607 99.512 332.026 100.129 333.323C100.745 334.621 101.366 335.597 101.992 336.253C102.619 336.908 103.357 337.563 104.208 338.217C105.058 338.872 106.017 339.301 107.083 339.506C108.149 339.71 109.551 339.764 111.289 339.667C113.028 339.571 114.698 339.088 116.301 338.22C117.903 337.351 119.52 336.389 121.151 335.334C122.783 334.279 124.327 332.95 125.783 331.346C127.24 329.743 128.572 327.77 129.779 325.429C130.986 323.088 132.25 320.456 133.57 317.535C134.889 314.614 135.864 311.731 136.492 308.885C137.121 306.039 137.665 303.159 138.124 300.244C138.584 297.329 138.833 294.857 138.87 292.828C138.907 290.799 138.926 288.998 138.926 287.425C138.926 285.852 138.754 284.761 138.411 284.151C138.068 283.541 137.74 283.109 137.428 282.853C137.115 282.597 136.672 282.453 136.097 282.422C135.523 282.391 134.772 282.462 133.845 282.635C132.919 282.809 132.125 283.132 131.463 283.606C130.802 284.079 130.278 284.527 129.892 284.95C129.506 285.372 129.169 285.806 128.88 286.252C128.591 286.697 128.594 286.817 128.889 286.613C129.184 286.408 129.424 286.358 129.607 286.463C129.791 286.568 130.16 286.725 130.713 286.935C131.266 287.146 131.999 287.428 132.91 287.784C133.821 288.139 134.786 288.402 135.807 288.574C136.827 288.745 138.013 289.093 139.365 289.616C140.717 290.139 141.889 290.766 142.882 291.497C143.874 292.227 144.866 293.083 145.858 294.066C146.849 295.048 147.744 296.699 148.541 299.019C149.339 301.338 149.823 303.542 149.994 305.631C150.166 307.719 150.114 310.149 149.839 312.92C149.564 315.691 149.323 318.201 149.116 320.448C148.908 322.695 148.692 324.878 148.469 326.997C148.245 329.115 148.222 330.991 148.398 332.624C148.575 334.257 148.917 335.557 149.426 336.526C149.934 337.494 150.483 338.221 151.073 338.706C151.663 339.192 152.282 339.606 152.931 339.95C153.58 340.294 154.206 340.534 154.81 340.671C155.413 340.807 155.99 340.775 156.54 340.573C157.09 340.372 157.524 339.987 157.842 339.419C158.16 338.851 158.649 337.8 159.31 336.266C159.971 334.732 160.579 333.115 161.134 331.415C161.689 329.715 162.179 328.112 162.604 326.606C163.029 325.101 163.531 323.551 164.109 321.958C164.688 320.366 165.267 318.637 165.848 316.773C166.428 314.909 167.025 312.779 167.637 310.381C168.249 307.983 169.282 305.579 170.736 303.168C172.19 300.758 173.689 298.651 175.233 296.846C176.777 295.042 178.493 293.376 180.381 291.85C182.27 290.324 184.14 289.047 185.993 288.019C187.846 286.992 189.405 286.275 190.67 285.868C191.935 285.462 192.974 285.195 193.788 285.068C194.601 284.94 195.623 285.059 196.854 285.425C198.084 285.791 199.155 286.47 200.066 287.461C200.977 288.452 201.752 289.502 202.39 290.61C203.029 291.719 203.566 292.904 204.004 294.167C204.441 295.429 204.648 296.473 204.626 297.3C204.603 298.127 204.691 298.618 204.891 298.773C205.091 298.929 205.052 299.519 204.775 300.543C204.498 301.567 203.914 302.215 203.023 302.486C201.686 302.893 202.508 303.058 201.431 302.168C200.712 301.574 200.18 300.887 199.835 300.106C200.18 300.887 200.18 300.887 199.835 300.106C199.489 299.325 199.06 298.527 198.548 297.71C198.036 296.894 197.56 296.195 197.12 295.613C196.68 295.032 196.221 294.66 195.743 294.497C195.265 294.335 194.58 294.084 193.688 293.746C192.796 293.407 191.865 293.198 190.894 293.12C189.923 293.041 188.885 293.271 187.779 293.809C186.673 294.347 185.747 295.009 185.001 295.796C184.255 296.583 183.28 297.758 182.076 299.32C180.872 300.882 179.721 302.783 178.623 305.023C177.525 307.263 176.657 309.891 176.019 312.909C175.38 315.927 174.883 319.093 174.525 322.408C174.168 325.724 174.079 328.574 174.258 330.959C174.437 333.345 174.786 335.471 175.306 337.339C175.826 339.206 176.262 340.67 176.614 341.73C176.965 342.791 177.468 343.642 178.121 344.283C178.775 344.924 179.704 345.656 180.909 346.479C182.114 347.302 183.313 347.779 184.506 347.911C185.698 348.042 187.077 347.866 188.641 347.381C190.205 346.896 191.692 346.156 193.102 345.161C194.512 344.166 195.819 342.83 197.022 341.155C198.226 339.48 199.273 337.622 200.162 335.581C201.051 333.54 201.792 331.331 202.384 328.953C202.977 326.576 203.369 324.409 203.56 322.452C203.751 320.496 203.948 318.713 204.153 317.104C204.357 315.494 204.443 314.118 204.411 312.976C204.378 311.833 204.282 310.921 204.124 310.238C203.966 309.554 203.825 308.94 203.7 308.395C203.576 307.849 203.601 307.754 203.776 308.11C203.951 308.466 203.906 308.512 203.642 308.248C203.378 307.984 203.492 308.056 203.982 308.466C204.473 308.875 204.43 309.458 203.854 310.216C203.277 310.974 202.551 312.029 201.673 313.38C200.796 314.732 199.993 316.375 199.263 318.308C198.533 320.242 197.995 322.013 197.648 323.623C197.3 325.232 197.228 326.674 197.43 327.947C197.632 329.221 198 330.368 198.535 331.388C199.069 332.409 199.621 333.269 200.192 333.97C200.762 334.671 201.347 335.408 201.945 336.183C202.542 336.957 203.102 337.445 203.622 337.645C204.143 337.845 204.844 337.984 205.726 338.06C206.608 338.137 207.501 338.171 208.406 338.162C209.311 338.153 210.25 337.727 211.223 336.883C212.196 336.04 213.479 334.91 215.072 333.495C216.665 332.079 218.246 330.232 219.815 327.952C221.384 325.672 222.905 322.671 224.378 318.947C225.851 315.223 227.075 311.97 228.049 309.189C229.023 306.408 229.734 304.28 230.182 302.806C230.631 301.331 230.931 300.131 231.082 299.204C231.234 298.277 231.392 297.409 231.557 296.601C231.722 295.793 231.804 295.251 231.804 294.974C231.804 294.697 231.803 294.501 231.803 294.385C231.802 294.269 231.802 294.211 231.802 294.211C231.802 294.211 232.01 293.794 232.427 292.961C233.052 291.711 235.552 291.711 236.177 292.961C236.593 293.794 236.802 294.528 236.802 295.163C236.802 294.528 236.802 294.528 236.802 295.163C236.802 295.797 236.886 296.703 237.054 297.879C237.222 299.056 237.417 300.648 237.639 302.654C237.86 304.661 238.076 306.63 238.287 308.563C238.498 310.496 238.714 312.76 238.936 315.355C239.158 317.95 239.544 320.643 240.094 323.434C240.643 326.225 241.023 329.078 241.232 331.993C241.441 334.908 241.445 337.824 241.244 340.741C241.043 343.657 240.736 346.951 240.322 350.622C239.908 354.293 239.658 357.631 239.57 360.638C239.483 363.644 239.274 366.573 238.944 369.425C238.613 372.277 238.258 374.844 237.879 377.127C237.5 379.41 237.112 381.543 236.717 383.525C236.322 385.508 235.796 387.514 235.14 389.543C234.483 391.573 233.852 393.478 233.246 395.258C232.64 397.039 231.934 398.78 231.127 400.48C230.32 402.18 229.39 403.711 228.339 405.071C227.287 406.43 226.371 407.589 225.591 408.547C224.811 409.505 223.842 410.409 222.683 411.259C221.525 412.109 220.302 412.852 219.015 413.486C217.729 414.12 216.256 414.453 214.597 414.487C212.938 414.52 211.207 414.236 209.403 413.636C207.599 413.035 205.861 412.306 204.189 411.449C202.517 410.591 201.006 409.749 199.656 408.922C198.306 408.095 196.815 406.782 195.181 404.983C193.548 403.184 191.931 400.881 190.331 398.074C188.732 395.267 187.38 392.516 186.277 389.822C185.174 387.128 184.57 384.498 184.465 381.932C184.361 379.366 184.512 377.029 184.919 374.921C185.327 372.813 185.879 370.785 186.577 368.837C187.276 366.89 188.188 364.949 189.315 363.013C190.442 361.078 191.537 359.447 192.6 358.121C193.663 356.795 194.907 355.51 196.333 354.265C197.759 353.02 199.275 351.795 200.879 350.589C202.484 349.383 204.208 348.448 206.051 347.782C207.894 347.116 209.719 346.751 211.525 346.687C213.332 346.624 215.099 346.668 216.827 346.82C218.555 346.971 220.357 347.149 222.232 347.351C224.107 347.554 225.96 347.654 227.792 347.651C229.624 347.649 231.382 347.648 233.066 347.648C234.75 347.648 236.431 347.599 238.109 347.501C239.788 347.403 241.549 347.085 243.393 346.547C245.238 346.009 247.179 345.303 249.217 344.43C251.255 343.558 253.482 342.457 255.9 341.127C258.318 339.798 260.458 338.58 262.322 337.474C264.186 336.367 265.756 335.137 267.032 333.782C268.309 332.427 269.683 330.676 271.155 328.528C272.628 326.381 274.11 324.111 275.602 321.717C277.095 319.324 278.401 316.826 279.522 314.222C280.642 311.619 281.76 309.022 282.876 306.431C283.992 303.841 285.023 301.354 285.969 298.972C286.915 296.59 287.61 294.521 288.054 292.766C288.498 291.01 288.815 289.378 289.005 287.868C289.195 286.358 289.295 285.17 289.306 284.303C289.317 283.437 289.253 282.854 289.115 282.557C288.977 282.259 288.92 282.214 288.943 282.423C288.967 282.631 288.888 282.773 288.709 282.848C288.53 282.922 288.515 283.098 288.664 283.373C288.814 283.649 288.582 284.258 287.969 285.201C287.355 286.144 286.643 287.118 285.832 288.123C285.021 289.128 284.647 289.906 284.71 290.458C284.774 291.01 284.706 291.673 284.508 292.446C284.31 293.22 284.347 293.68 284.622 293.826C284.896 293.972 285.154 294.481 285.394 295.352C285.634 296.223 286.011 297.151 286.523 298.136C287.035 299.12 287.683 300.275 288.465 301.6C289.247 302.924 290.032 304.317 290.818 305.779C291.604 307.24 292.462 308.918 293.391 310.813C294.32 312.708 295.199 314.813 296.028 317.126C296.857 319.44 297.575 321.909 298.183 324.534C298.79 327.159 299.09 329.74 299.083 332.278C299.075 334.816 298.93 337.061 298.648 339.014C298.366 340.966 297.965 342.936 297.443 344.922C296.921 346.908 296.076 349.114 294.908 351.54C293.74 353.967 292.276 356.464 290.517 359.032C288.758 361.6 286.85 364.033 284.792 366.331C282.734 368.629 280.259 370.734 277.368 372.646C274.476 374.557 271.528 375.97 268.523 376.885C265.517 377.799 262.828 378.133 260.453 377.888C258.079 377.643 256.049 376.988 254.363 375.923C252.676 374.859 251.237 373.534 250.044 371.95C248.851 370.366 248.066 368.479 247.689 366.289C247.313 364.099 247.336 361.889 247.758 359.658C248.181 357.428 248.97 355.162 250.126 352.861C251.283 350.56 252.758 348.374 254.553 346.305C256.347 344.236 258.132 342.401 259.908 340.801C261.684 339.2 263.557 337.879 265.529 336.837C267.5 335.795 269.069 335.072 270.236 334.667C271.402 334.262 272.708 334.037 274.152 333.993C275.597 333.949 277.079 334.244 278.597 334.879C280.116 335.513 281.505 336.245 282.765 337.075C284.025 337.904 285.274 338.951 286.513 340.213C287.752 341.476 288.986 342.618 290.214 343.639C291.442 344.66 292.718 345.625 294.04 346.534C295.363 347.444 296.707 348.372 298.073 349.319C299.44 350.266 300.746 350.872 301.992 351.136C303.237 351.4 304.555 351.59 305.945 351.706C307.336 351.822 308.557 351.75 309.609 351.49C310.661 351.231 311.797 350.855 313.019 350.363C314.241 349.87 315.181 349.18 315.838 348.291C316.496 347.402 317.325 345.641 318.326 343.01C319.326 340.379 320.287 337.628 321.21 334.758C322.132 331.888 322.731 329.6 323.008 327.896C323.285 326.192 323.626 324.676 324.032 323.349C324.438 322.022 324.648 321.118 324.663 320.638C324.678 320.157 324.684 319.76 324.682 319.447C324.679 319.133 324.678 318.85 324.678 318.599C324.678 318.347 324.678 318.221 324.678 318.221C324.678 318.221 324.886 317.805 325.303 316.971C325.928 315.721 329.186 316.277 329.361 317.663C329.478 318.588 329.449 319.3 329.273 319.801C329.449 319.3 329.449 319.3 329.273 319.801C329.097 320.302 328.76 321.338 328.26 322.91C327.761 324.482 327.331 326.367 326.97 328.565C326.608 330.764 326.442 332.998 326.47 335.269C326.498 337.54 326.746 339.346 327.213 340.687C327.681 342.028 328.253 343.211 328.93 344.236C329.607 345.261 330.336 346.149 331.116 346.9C331.896 347.651 332.791 348.282 333.802 348.795C334.812 349.307 335.813 349.599 336.805 349.671C337.798 349.743 338.808 349.58 339.835 349.182C340.863 348.784 341.874 348.066 342.87 347.029C343.865 345.992 344.962 344.582 346.158 342.8C347.355 341.018 348.607 338.789 349.915 336.114C351.222 333.439 352.245 331.174 352.982 329.318C353.72 327.463 354.252 325.974 354.578 324.851C354.905 323.728 355.218 322.757 355.518 321.939C355.817 321.121 356.058 320.478 356.238 320.011C356.419 319.544 356.481 319.437 356.425 319.689C356.369 319.942 356.341 319.936 356.341 319.673C356.341 319.409 356.549 318.86 356.966 318.027C357.591 316.777 360.091 316.777 360.716 318.027C361.132 318.86 361.341 319.409 361.341 319.673C361.341 319.409 361.341 319.409 361.341 319.673C361.341 319.936 361.341 320.42 361.341 321.124C361.341 321.827 361.089 323.274 360.587 325.464C360.085 327.654 359.55 329.665 358.983 331.497C358.416 333.329 357.84 335.032 357.255 336.607C356.67 338.181 356.196 339.613 355.834 340.903C355.472 342.192 355.185 343.2 354.974 343.926C354.763 344.652 354.487 345.341 354.144 345.994C353.802 346.646 353.523 347.126 353.305 347.433C353.087 347.74 352.564 348.107 351.736 348.533C350.493 349.173 349.898 349.002 349.183 347.801C348.707 347 348.462 346.517 348.45 346.35C348.462 346.517 348.462 346.517 348.45 346.35C348.438 346.184 348.431 345.874 348.428 345.42C348.426 344.967 348.425 344.279 348.425 343.358C348.425 342.437 348.882 340.969 349.795 338.953C350.709 336.937 351.705 335.133 352.783 333.539C353.861 331.946 355.205 330.32 356.813 328.662C358.421 327.004 360.205 325.389 362.165 323.817C364.125 322.246 365.895 320.87 367.477 319.691C369.058 318.512 370.441 317.595 371.626 316.942C372.811 316.288 373.83 315.824 374.683 315.548C375.536 315.272 376.464 315.2 377.467 315.332C378.47 315.464 379.438 316.153 380.37 317.399C381.302 318.646 381.992 320.18 382.441 322.003C382.89 323.825 383.224 325.684 383.443 327.581C383.663 329.477 383.815 331.074 383.9 332.371C383.984 333.669 384.109 334.748 384.273 335.61C384.437 336.472 384.525 337.277 384.539 338.025C384.553 338.773 384.632 339.345 384.776 339.741C384.921 340.137 384.947 340.201 384.854 339.934C384.761 339.666 384.71 339.493 384.701 339.413C384.692 339.334 384.71 339.287 384.756 339.274C384.802 339.26 384.945 339.172 385.187 339.01C385.428 338.848 385.905 338.435 386.618 337.772C387.331 337.108 388.292 336.17 389.501 334.956C390.71 333.742 392.068 332.382 393.573 330.877C395.079 329.371 396.568 327.709 398.039 325.892C399.511 324.075 401.022 322.217 402.572 320.317C404.122 318.416 405.819 316.645 407.662 315.004C409.506 313.362 410.994 311.907 412.128 310.641C413.263 309.375 414.462 308.252 415.726 307.273C416.99 306.295 417.892 305.529 418.433 304.978C418.974 304.426 419.91 303.934 421.241 303.502C422.571 303.07 423.735 302.864 424.731 302.884C425.727 302.905 426.634 303.039 427.449 303.289C428.265 303.538 429.078 304.008 429.888 304.698C430.698 305.389 431.379 306.237 431.931 307.243C432.483 308.25 432.891 309.206 433.154 310.112C433.417 311.018 433.633 311.743 433.801 312.285C433.969 312.828 434.071 313.411 434.108 314.035C434.145 314.658 434.164 315.055 434.164 315.223C434.164 315.392 433.956 315.893 433.539 316.726C432.914 317.976 432.914 312.976 433.539 314.226C433.956 315.06 433.331 315.476 431.664 315.476C433.331 315.476 433.331 315.476 431.664 315.476C429.997 315.476 429.375 315.854 429.796 316.609C430.218 317.364 430.133 317.165 429.542 316.012C428.951 314.859 428.679 314.586 428.725 315.192C428.771 315.799 428.591 315.938 428.186 315.612C427.782 315.285 427.355 314.99 426.906 314.727C426.458 314.465 426.153 314.386 425.994 314.493C425.834 314.599 425.15 314.652 423.941 314.652C422.732 314.653 421.775 314.946 421.071 315.533C420.368 316.12 419.369 316.846 418.077 317.711C416.784 318.577 415.633 319.604 414.624 320.792C413.615 321.98 412.556 323.317 411.446 324.801C410.336 326.285 409.329 328.022 408.426 330.011C407.523 332 407.101 333.652 407.161 334.966C407.221 336.28 407.251 337.623 407.251 338.996C407.251 340.37 407.319 341.418 407.456 342.142C407.592 342.866 407.791 343.364 408.053 343.638C408.315 343.912 408.586 344.177 408.868 344.434C409.15 344.691 409.426 344.77 409.695 344.672C409.964 344.573 410.473 344.339 411.22 343.969C411.967 343.599 412.894 343.018 414.003 342.225C415.111 341.433 416.349 340.255 417.717 338.694C419.084 337.132 420.591 335.243 422.237 333.026C423.882 330.808 425.481 328.448 427.032 325.943C428.584 323.439 429.754 321.517 430.542 320.177C431.331 318.838 431.942 317.778 432.377 316.999C432.811 316.22 433.144 315.63 433.374 315.23C433.604 314.83 433.664 314.701 433.553 314.843C433.441 314.984 433.386 315.055 433.386 315.055C433.386 315.055 433.594 314.638 434.011 313.805C434.636 312.555 437.808 313.026 438.043 314.404C438.2 315.322 438.128 316.276 437.827 317.265C438.128 316.276 438.128 316.276 437.827 317.265C437.527 318.254 437.18 319.34 436.785 320.525C436.391 321.709 436.009 323.226 435.639 325.077C435.269 326.928 434.927 328.992 434.612 331.268C434.298 333.545 434.01 335.77 433.748 337.944C433.487 340.118 433.248 342.33 433.033 344.581C432.818 346.833 432.52 349.272 432.138 351.899C431.757 354.527 431.368 357.336 430.969 360.328C430.57 363.319 429.968 366.299 429.161 369.268C428.354 372.237 427.574 375.359 426.82 378.635C426.065 381.911 425.246 385.284 424.36 388.752C423.475 392.221 422.614 395.547 421.779 398.732C420.943 401.917 420.025 404.654 419.024 406.942C418.024 409.231 417.157 411.134 416.423 412.65C415.69 414.167 414.932 415.36 414.15 416.23C413.368 417.101 412.584 417.854 411.797 418.49C411.01 419.126 409.547 419.519 407.408 419.666C405.269 419.814 402.979 419.376 400.539 418.352C398.099 417.328 396.074 416.05 394.464 414.519C392.855 412.988 391.555 411.507 390.565 410.075C389.574 408.644 388.784 407.115 388.194 405.487C387.603 403.86 387.248 402.151 387.129 400.358C387.01 398.565 387.234 396.743 387.8 394.892C388.367 393.041 389.251 391.094 390.453 389.052C391.656 387.01 393.173 384.874 395.005 382.645C396.837 380.415 398.664 378.329 400.488 376.386C402.311 374.443 404.319 372.443 406.511 370.385C408.703 368.327 410.645 366.549 412.338 365.052C414.031 363.555 415.964 361.917 418.138 360.139C420.311 358.361 422.66 356.494 425.185 354.537C427.71 352.58 430.104 350.57 432.369 348.507C434.634 346.444 436.848 344.16 439.011 341.655C441.174 339.15 442.981 336.161 444.43 332.69C445.88 329.22 447.169 325.609 448.299 321.858C449.429 318.106 450.246 314.674 450.75 311.56C451.254 308.447 451.701 305.462 452.091 302.606C452.48 299.751 452.805 297.079 453.064 294.591C453.323 292.102 453.526 289.78 453.675 287.623C453.823 285.466 453.909 283.709 453.932 282.352C453.955 280.995 453.967 279.945 453.966 279.2C453.966 278.456 453.966 277.916 453.966 277.58C453.966 277.245 453.966 276.986 453.966 276.805C453.966 276.623 454.175 276.116 454.591 275.283C455.216 274.033 456.918 273.774 457.886 274.783C458.531 275.455 458.962 276.139 459.178 276.836C458.962 276.139 458.962 276.139 459.178 276.836C459.395 277.532 459.625 278.898 459.868 280.933C460.111 282.968 460.248 285.247 460.279 287.77C460.309 290.293 460.273 292.782 460.172 295.238C460.07 297.693 459.935 300.077 459.766 302.389C459.596 304.701 459.402 307.447 459.183 310.627C458.963 313.807 458.784 316.646 458.644 319.142C458.504 321.638 458.295 324.033 458.016 326.326C457.736 328.619 457.492 330.64 457.283 332.387C457.074 334.135 456.864 335.646 456.651 336.922C456.438 338.197 456.331 339.162 456.33 339.816C456.328 340.47 456.22 341.192 456.004 341.983C455.789 342.773 455.701 343.232 455.741 343.36C455.78 343.487 455.8 343.625 455.8 343.773C455.8 343.921 455.8 344.095 455.8 344.294C455.8 344.494 455.592 345.01 455.175 345.844C454.55 347.094 452.05 347.094 451.425 345.844C451.008 345.01 450.8 344.397 450.8 344.002C450.8 344.397 450.8 344.397 450.8 344.002C450.8 343.608 450.8 343.129 450.8 342.566C450.8 342.002 450.899 341.246 451.096 340.296C451.293 339.346 451.646 338.364 452.155 337.349C452.663 336.333 453.162 335.389 453.651 334.517C454.14 333.645 454.723 332.733 455.398 331.782C456.074 330.831 456.74 330.018 457.398 329.345C458.055 328.672 458.781 327.938 459.577 327.143C460.372 326.348 461.116 325.604 461.809 324.911C462.501 324.218 463.128 323.591 463.69 323.029C464.252 322.468 464.723 321.997 465.103 321.616C465.484 321.235 465.962 320.87 466.537 320.521C467.112 320.172 467.609 319.897 468.029 319.696C468.448 319.495 469.035 319.354 469.789 319.273C470.543 319.192 471.043 319.151 471.287 319.151C471.532 319.151 471.982 319.282 472.639 319.544C473.296 319.805 473.815 320.135 474.197 320.535C474.578 320.935 474.973 321.434 475.38 322.032C475.787 322.63 476.237 323.547 476.731 324.782C477.224 326.017 477.743 327.276 478.286 328.561C478.83 329.846 479.233 331.249 479.497 332.771C479.76 334.294 479.994 335.715 480.199 337.034C480.404 338.353 480.607 339.699 480.806 341.072C481.005 342.445 481.193 343.837 481.371 345.248C481.549 346.658 481.763 348.003 482.014 349.28C482.264 350.558 482.502 352.007 482.727 353.626C482.952 355.245 483.166 356.814 483.369 358.331C483.572 359.849 483.782 361.291 483.999 362.657C484.215 364.024 484.427 365.368 484.633 366.691C484.839 368.013 484.963 369.395 485.007 370.834C485.05 372.274 485.117 373.541 485.207 374.636C485.298 375.73 485.426 376.743 485.593 377.675C485.759 378.606 485.848 379.541 485.861 380.479C485.873 381.418 485.879 382.169 485.879 382.733C485.879 383.297 485.879 383.968 485.879 384.746C485.879 385.525 485.879 386.077 485.879 386.402C485.879 386.727 485.879 387.078 485.879 387.456C485.879 387.834 485.879 388.174 485.879 388.478C485.879 388.782 485.879 389.022 485.879 389.198C485.879 389.374 485.879 389.506 485.879 389.594C485.879 389.682 485.671 390.142 485.254 390.976C484.629 392.226 484.629 387.226 485.254 388.476C485.671 389.309 485.046 389.726 483.379 389.726C485.046 389.726 485.046 389.726 483.379 389.726C481.713 389.726 481.338 389.255 482.254 388.313C483.171 387.37 483.748 386.806 483.985 386.619C484.222 386.433 484.569 386.101 485.026 385.626C485.483 385.151 486.072 384.553 486.791 383.834C487.51 383.115 488.197 382.255 488.853 381.255C489.508 380.256 490.221 379.177 490.992 378.021C491.764 376.864 492.616 375.499 493.549 373.926C494.482 372.353 495.428 370.812 496.389 369.301C497.35 367.791 498.28 366.258 499.18 364.703C500.079 363.148 500.806 361.655 501.361 360.225C501.915 358.794 502.476 357.413 503.042 356.082C503.607 354.751 503.927 353.525 504 352.405C504.074 351.285 504.109 350.194 504.105 349.133C504.1 348.071 504.098 347.041 504.098 346.044C504.098 345.047 504.012 344.141 503.839 343.327C503.666 342.514 503.476 341.642 503.268 340.712C503.061 339.782 502.798 339.029 502.482 338.451C502.166 337.874 501.832 337.478 501.479 337.264C501.127 337.05 500.476 336.619 499.525 335.97C498.574 335.321 497.396 334.64 495.992 333.929C494.587 333.218 492.675 332.395 490.255 331.46C487.835 330.525 485.02 329.7 481.811 328.984C478.602 328.267 474.887 327.668 470.666 327.184C466.445 326.701 461.78 326.427 456.669 326.361C451.558 326.295 446.195 326.257 440.578 326.246C434.962 326.235 429.209 326.235 423.32 326.246C417.431 326.257 411.487 326.466 405.487 326.875C399.487 327.283 393.261 327.596 386.808 327.813C380.356 328.03 374.183 328.178 368.287 328.256C362.392 328.334 356.084 328.457 349.363 328.625C342.642 328.792 336.018 328.975 329.492 329.173C322.966 329.371 315.846 329.661 308.131 330.042C300.417 330.423 293.003 331.155 285.889 332.238C278.776 333.322 271.24 334.587 263.282 336.035C255.325 337.482 246.742 339.245 237.536 341.324C228.329 343.402 219.253 345.599 210.306 347.917C201.36 350.234 192.786 352.324 184.584 354.186C176.383 356.049 167.837 358.393 158.947 361.22C150.057 364.046 140.764 367.038 131.069 370.195C121.373 373.353 112.334 376.735 103.952 380.34C95.5693 383.946 87.2441 387.75 78.9763 391.751C70.7085 395.753 62.9009 400.109 55.5535 404.821C48.2062 409.533 41.3954 414.233 35.1212 418.922C28.8469 423.612 24.835 426.588 23.0855 427.852C21.336 429.115 20.0014 429.822 19.0819 429.972C18.1624 430.123 17.4587 429.86 16.9708 429.184C16.4829 428.509 16.4547 427.758 16.8863 426.932C17.3179 426.107 18.3977 425.07 20.1257 423.822C21.8537 422.574 25.9041 419.572 32.277 414.814C38.6499 410.057 45.5964 405.274 53.1165 400.465C60.6367 395.657 68.5647 391.237 76.9004 387.204C85.2361 383.172 93.6661 379.326 102.191 375.666C110.715 372.007 119.831 368.597 129.538 365.436C139.245 362.274 148.611 359.262 157.637 356.399C166.662 353.536 175.251 351.179 183.404 349.328C191.557 347.477 200.132 345.387 209.129 343.058C218.127 340.728 227.263 338.517 236.538 336.425C245.813 334.333 254.454 332.559 262.46 331.103C270.466 329.648 278.11 328.37 285.391 327.269C292.673 326.169 300.186 325.428 307.932 325.046C315.678 324.664 322.819 324.374 329.354 324.175C335.889 323.977 342.527 323.794 349.268 323.625C356.008 323.457 362.309 323.335 368.171 323.258C374.032 323.18 380.16 323.035 386.556 322.82C392.951 322.606 399.204 322.293 405.313 321.88C411.423 321.468 417.425 321.257 423.321 321.246C429.216 321.235 434.982 321.235 440.617 321.246C446.253 321.257 451.711 321.301 456.99 321.378C462.27 321.454 467.108 321.749 471.504 322.262C475.901 322.776 479.822 323.426 483.267 324.214C486.712 325.002 489.722 325.899 492.299 326.904C494.876 327.909 496.959 328.823 498.549 329.645C500.138 330.466 501.477 331.255 502.565 332.009C503.654 332.764 504.578 333.509 505.339 334.245C506.099 334.981 506.706 335.829 507.158 336.789C507.61 337.749 507.945 338.717 508.163 339.693C508.38 340.669 508.591 341.723 508.794 342.853C508.997 343.983 509.098 345.047 509.098 346.044C509.098 347.041 509.096 348.153 509.092 349.38C509.088 350.607 508.987 352.024 508.789 353.632C508.59 355.239 508.217 356.688 507.667 357.979C507.118 359.269 506.512 360.741 505.85 362.395C505.187 364.049 504.388 365.683 503.452 367.298C502.516 368.913 501.581 370.454 500.648 371.92C499.714 373.387 498.757 374.943 497.778 376.59C496.799 378.236 495.921 379.641 495.146 380.805C494.37 381.969 493.552 383.174 492.694 384.42C491.835 385.667 491.046 386.65 490.326 387.369C489.607 388.089 488.907 388.78 488.225 389.443C487.544 390.107 486.935 390.615 486.4 390.967C485.864 391.32 485.643 391.201 485.738 390.611C485.832 390.021 485.046 389.726 483.379 389.726C485.046 389.726 485.046 389.726 483.379 389.726C481.713 389.726 481.713 389.726 483.379 389.726C484.629 392.226 484.629 387.226 485.254 388.476C482.338 389.309 480.879 389.682 480.879 389.594C480.879 389.506 480.879 389.374 480.879 389.198C480.879 389.022 480.879 388.782 480.879 388.478C480.879 388.174 480.879 387.834 480.879 387.456C480.879 387.078 480.879 386.727 480.879 386.402C480.879 386.077 480.879 385.525 480.879 384.746C480.879 383.968 480.879 383.297 480.879 382.733C480.879 382.169 480.885 381.561 480.898 380.91C480.91 380.258 480.824 379.391 480.638 378.308C480.453 377.225 480.312 376.09 480.217 374.902C480.121 373.714 480.061 372.508 480.037 371.282C480.013 370.057 479.898 368.785 479.693 367.466C479.488 366.148 479.274 364.786 479.052 363.38C478.829 361.974 478.617 360.516 478.415 359.005C478.213 357.495 478.007 355.975 477.796 354.446C477.586 352.916 477.347 351.458 477.079 350.07C476.811 348.683 476.59 347.299 476.417 345.919C476.243 344.539 476.058 343.171 475.861 341.815C475.665 340.459 475.464 339.122 475.259 337.805C475.054 336.487 474.876 335.263 474.724 334.131C474.572 333 474.213 331.764 473.647 330.424C473.081 329.083 472.639 327.965 472.322 327.069C472.004 326.173 471.685 325.484 471.363 325.002C471.042 324.52 470.896 324.261 470.926 324.226C470.956 324.191 471.084 324.17 471.312 324.162C471.54 324.155 471.532 324.151 471.287 324.151C471.043 324.151 470.902 324.111 470.865 324.03C470.827 323.949 470.635 323.991 470.288 324.155C469.94 324.319 469.674 324.431 469.488 324.491C469.303 324.551 469.02 324.771 468.639 325.152C468.258 325.532 467.787 326.003 467.226 326.565C466.664 327.127 466.037 327.754 465.344 328.447C464.651 329.139 463.907 329.883 463.112 330.678C462.317 331.474 461.679 332.104 461.197 332.569C460.716 333.035 460.187 333.666 459.611 334.462C459.034 335.257 458.51 336.075 458.038 336.916C457.566 337.756 457.152 338.48 456.797 339.086C456.441 339.693 456.186 340.283 456.032 340.858C455.877 341.433 455.8 342.002 455.8 342.566C455.8 343.129 455.8 343.608 455.8 344.002C455.8 343.608 455.8 343.608 455.8 344.002C455.8 344.397 455.8 344.397 455.8 344.002C454.55 347.094 452.05 347.094 451.425 345.844C451.008 345.01 450.8 344.494 450.8 344.294C450.8 344.095 450.8 343.921 450.8 343.773C450.8 343.625 450.82 343.234 450.859 342.598C450.899 341.963 450.987 341.49 451.123 341.18C451.26 340.87 451.34 340.264 451.364 339.362C451.389 338.46 451.501 337.41 451.703 336.212C451.904 335.014 452.11 333.539 452.319 331.786C452.529 330.034 452.769 328.066 453.038 325.882C453.308 323.699 453.513 321.348 453.654 318.83C453.795 316.312 453.975 313.46 454.195 310.272C454.415 307.085 454.608 304.361 454.775 302.102C454.941 299.842 455.074 297.528 455.174 295.159C455.274 292.79 455.314 290.429 455.294 288.075C455.274 285.72 455.175 283.68 454.996 281.953C454.817 280.227 454.62 279.015 454.403 278.319C454.62 279.015 454.62 279.015 454.403 278.319C454.187 277.622 454.187 277.622 454.403 278.319C455.216 274.033 456.918 273.774 457.886 274.783C458.606 275.949 458.966 276.623 458.966 276.805C458.966 276.986 458.966 277.245 458.966 277.58C458.966 277.916 458.966 278.471 458.966 279.245C458.966 280.019 458.952 281.127 458.926 282.569C458.899 284.011 458.809 285.84 458.655 288.054C458.502 290.269 458.292 292.647 458.027 295.188C457.762 297.729 457.431 300.449 457.035 303.35C456.638 306.25 456.163 309.363 455.61 312.69C455.057 316.016 454.183 319.643 452.989 323.569C451.795 327.496 450.337 331.411 448.616 335.315C446.895 339.219 444.884 342.495 442.582 345.142C440.281 347.788 437.948 350.185 435.582 352.333C433.217 354.48 430.789 356.518 428.298 358.448C425.808 360.378 423.5 362.211 421.376 363.947C419.252 365.684 417.361 367.284 415.704 368.749C414.048 370.213 412.161 371.937 410.043 373.92C407.926 375.904 405.99 377.828 404.236 379.692C402.482 381.556 400.762 383.5 399.075 385.524C397.389 387.548 396.019 389.42 394.965 391.14C393.912 392.86 393.145 394.339 392.665 395.575C392.185 396.811 391.96 398.095 391.991 399.425C392.021 400.756 392.233 402.037 392.626 403.27C393.019 404.503 393.61 405.713 394.399 406.902C395.189 408.091 396.141 409.28 397.256 410.47C398.371 411.66 399.824 412.694 401.616 413.572C403.408 414.45 404.837 414.997 405.902 415.212C406.967 415.427 407.813 415.29 408.44 414.799C409.066 414.309 409.62 413.844 410.101 413.405C410.582 412.966 411.177 412.015 411.887 410.55C412.596 409.085 413.407 407.334 414.32 405.297C415.232 403.259 416.105 400.653 416.938 397.479C417.771 394.305 418.626 391.003 419.502 387.572C420.378 384.142 421.202 380.755 421.973 377.412C422.744 374.07 423.51 371.024 424.272 368.276C425.034 365.528 425.616 362.649 426.017 359.638C426.418 356.627 426.805 353.848 427.176 351.301C427.547 348.755 427.843 346.336 428.062 344.044C428.282 341.753 428.524 339.505 428.79 337.301C429.055 335.097 429.354 332.806 429.686 330.427C430.018 328.048 430.395 325.835 430.817 323.789C431.239 321.743 431.641 320.149 432.021 319.007C432.402 317.866 432.743 316.801 433.043 315.812C432.743 316.801 432.743 316.801 433.043 315.812C433.343 314.823 433.343 314.823 433.043 315.812C434.636 312.555 437.808 313.026 438.043 314.404C438.271 314.838 438.386 315.055 438.386 315.055C438.386 315.055 438.33 315.4 438.219 316.091C438.107 316.781 437.942 317.317 437.723 317.697C437.504 318.077 437.168 318.673 436.714 319.486C436.26 320.298 435.629 321.391 434.82 322.765C434.012 324.138 432.792 326.134 431.162 328.755C429.532 331.375 427.846 333.852 426.104 336.187C424.362 338.522 422.657 340.602 420.987 342.428C419.318 344.253 417.73 345.662 416.222 346.655C414.714 347.648 413.165 348.36 411.573 348.792C409.981 349.223 408.614 349.259 407.47 348.897C406.327 348.536 405.507 348.094 405.009 347.571C404.511 347.049 404.007 346.335 403.497 345.431C402.987 344.526 402.652 343.571 402.492 342.565C402.331 341.559 402.251 340.361 402.251 338.97C402.251 337.579 402.299 335.885 402.393 333.887C402.488 331.889 403.077 329.746 404.158 327.459C405.24 325.171 406.377 323.234 407.569 321.649C408.762 320.063 410.025 318.535 411.358 317.062C412.691 315.59 414.026 314.407 415.365 313.512C416.703 312.617 418.165 311.75 419.75 310.911C421.335 310.072 422.754 309.653 424.009 309.653C425.263 309.654 426.382 309.722 427.364 309.86C428.347 309.997 429.165 310.27 429.818 310.68C430.471 311.09 430.893 311.382 431.083 311.555C431.273 311.729 431.743 312.33 432.493 313.359C433.242 314.388 433.291 314.569 432.64 313.9C431.988 313.231 432.079 313.326 432.913 314.186C433.747 315.046 433.331 315.476 431.664 315.476C433.331 315.476 433.331 315.476 431.664 315.476C429.997 315.476 429.997 315.476 431.664 315.476C432.914 317.976 432.914 312.976 433.539 314.226C430.622 315.06 429.164 315.392 429.164 315.223C429.164 315.055 429.183 314.904 429.22 314.772C429.257 314.64 429.183 314.275 429 313.678C428.816 313.081 428.651 312.484 428.506 311.886C428.36 311.288 428.169 310.704 427.933 310.135C427.697 309.565 427.486 309.131 427.301 308.832C427.116 308.533 426.848 308.304 426.496 308.146C426.145 307.987 425.696 307.879 425.152 307.82C424.608 307.761 424.077 307.724 423.558 307.708C423.04 307.693 422.425 308.036 421.714 308.736C421.002 309.436 420.13 310.17 419.095 310.938C418.061 311.705 416.909 312.789 415.64 314.189C414.371 315.589 412.909 317.012 411.254 318.458C409.599 319.904 407.997 321.576 406.449 323.474C404.901 325.372 403.333 327.293 401.747 329.237C400.161 331.181 398.615 332.906 397.109 334.412C395.603 335.918 394.191 337.327 392.874 338.64C391.557 339.953 390.29 341.086 389.072 342.04C387.855 342.993 386.786 343.599 385.866 343.856C384.946 344.113 384.297 344.22 383.922 344.178C383.546 344.136 383.051 343.991 382.437 343.745C381.823 343.499 381.293 343.095 380.849 342.535C380.404 341.975 380.078 341.27 379.871 340.421C379.663 339.571 379.566 338.923 379.58 338.476C379.594 338.029 379.507 337.278 379.319 336.222C379.131 335.167 378.998 334.03 378.921 332.812C378.843 331.594 378.711 330.134 378.525 328.432C378.339 326.73 378.083 325.14 377.756 323.662C377.43 322.184 377.345 321.266 377.502 320.91C377.66 320.553 377.683 320.299 377.573 320.148C377.464 319.996 377.139 319.993 376.6 320.138C376.061 320.282 375.299 320.618 374.314 321.143C373.329 321.668 372.068 322.504 370.53 323.649C368.992 324.795 367.318 326.086 365.509 327.522C363.699 328.958 362.084 330.392 360.663 331.821C359.241 333.251 358.048 334.668 357.082 336.071C356.116 337.473 355.265 338.808 354.529 340.076C353.793 341.343 353.425 342.437 353.425 343.358C353.425 344.279 353.424 344.906 353.422 345.237C353.419 345.569 353.424 345.818 353.436 345.984C353.424 345.818 353.424 345.818 353.436 345.984C353.449 346.151 353.449 346.151 353.436 345.984C350.493 349.173 349.898 349.002 349.183 347.801C349.024 345.894 348.999 344.87 349.109 344.73C349.219 344.59 349.371 344.37 349.565 344.07C349.759 343.77 349.96 343.262 350.168 342.547C350.376 341.833 350.682 340.766 351.086 339.349C351.49 337.931 351.97 336.479 352.525 334.992C353.08 333.506 353.627 331.899 354.165 330.172C354.703 328.445 355.2 326.682 355.656 324.881C356.112 323.08 356.341 321.827 356.341 321.124C356.341 320.42 356.341 319.936 356.341 319.673C356.341 319.936 356.341 319.936 356.341 319.673C356.341 319.409 356.341 319.409 356.341 319.673C357.591 316.777 360.091 316.777 360.716 318.027C361.132 318.86 361.341 319.409 361.341 319.673C361.341 319.936 361.312 320.243 361.256 320.592C361.2 320.941 361.086 321.336 360.915 321.778C360.744 322.22 360.526 322.797 360.262 323.509C359.997 324.221 359.676 325.212 359.299 326.483C358.921 327.753 358.338 329.375 357.547 331.349C356.757 333.323 355.648 335.75 354.22 338.631C352.792 341.512 351.359 343.983 349.922 346.044C348.485 348.106 346.948 349.84 345.312 351.248C343.676 352.656 341.99 353.59 340.254 354.049C338.518 354.508 336.862 354.607 335.286 354.345C333.711 354.084 332.228 353.554 330.837 352.757C329.446 351.96 328.245 351.041 327.233 350C326.221 348.958 325.287 347.735 324.433 346.328C323.579 344.922 322.878 343.301 322.332 341.464C321.785 339.628 321.509 337.431 321.504 334.872C321.499 332.313 321.705 329.82 322.122 327.393C322.538 324.966 323.004 322.943 323.519 321.324C324.034 319.705 324.38 318.645 324.556 318.144C324.38 318.645 324.38 318.645 324.556 318.144C324.731 317.643 324.731 317.643 324.556 318.144C325.928 315.721 329.186 316.277 329.361 317.663C329.573 318.035 329.678 318.221 329.678 318.221C329.678 318.221 329.678 318.347 329.678 318.599C329.678 318.85 329.677 319.196 329.675 319.634C329.672 320.073 329.628 320.718 329.543 321.57C329.457 322.421 329.238 323.4 328.884 324.507C328.531 325.613 328.187 327.136 327.853 329.076C327.519 331.015 326.871 333.474 325.91 336.452C324.949 339.43 323.821 342.476 322.525 345.588C321.229 348.7 319.931 350.927 318.631 352.267C317.33 353.608 315.936 354.564 314.449 355.136C312.962 355.707 311.445 356.138 309.898 356.426C308.351 356.715 306.752 356.779 305.101 356.618C303.449 356.457 301.732 356.122 299.949 355.613C298.166 355.104 296.592 354.376 295.228 353.431C293.864 352.485 292.46 351.511 291.015 350.509C289.571 349.507 288.167 348.433 286.806 347.287C285.444 346.142 284.283 345.054 283.323 344.024C282.362 342.994 281.355 342.123 280.302 341.411C279.25 340.699 278.323 340.107 277.521 339.635C276.72 339.163 275.864 338.905 274.955 338.861C274.045 338.817 273.12 338.95 272.179 339.259C271.238 339.568 269.958 340.123 268.339 340.923C266.72 341.722 265.091 342.854 263.451 344.317C261.811 345.78 260.21 347.378 258.647 349.109C257.084 350.84 255.799 352.645 254.793 354.524C253.788 356.402 253.085 358.182 252.685 359.861C252.286 361.541 252.125 363.095 252.202 364.522C252.28 365.949 252.715 367.257 253.508 368.445C254.3 369.633 255.173 370.617 256.125 371.396C257.078 372.174 258.398 372.713 260.084 373.01C261.77 373.308 263.896 373.1 266.46 372.388C269.025 371.676 271.588 370.506 274.148 368.877C276.708 367.249 278.95 365.37 280.875 363.24C282.8 361.111 284.579 358.87 286.213 356.516C287.847 354.162 289.191 351.924 290.245 349.801C291.3 347.679 292.069 345.716 292.553 343.913C293.037 342.111 293.411 340.345 293.675 338.616C293.939 336.887 294.096 334.951 294.146 332.806C294.196 330.661 293.944 328.37 293.391 325.931C292.837 323.492 292.183 321.203 291.427 319.064C290.672 316.925 289.844 314.936 288.944 313.097C288.043 311.257 287.216 309.635 286.461 308.231C285.707 306.826 284.912 305.411 284.075 303.986C283.238 302.561 282.502 301.195 281.868 299.887C281.234 298.578 280.844 297.622 280.699 297.018C280.554 296.415 280.297 295.48 279.931 294.213C279.564 292.948 279.457 292.044 279.611 291.504C279.764 290.963 279.989 289.991 280.286 288.587C280.583 287.183 281.096 286.034 281.825 285.14C282.554 284.245 283.359 283.174 284.24 281.926C285.121 280.679 286.171 279.716 287.39 279.038C288.609 278.36 289.687 278.146 290.623 278.397C291.559 278.647 292.302 279.08 292.853 279.695C293.404 280.309 293.787 281.03 294.001 281.856C294.215 282.682 294.309 283.621 294.285 284.672C294.26 285.723 294.134 287.103 293.905 288.812C293.677 290.522 293.308 292.354 292.798 294.31C292.289 296.266 291.552 298.458 290.588 300.884C289.624 303.31 288.583 305.821 287.465 308.416C286.348 311.011 285.171 313.719 283.936 316.541C282.7 319.363 281.315 322.004 279.779 324.463C278.243 326.923 276.651 329.333 275.004 331.694C273.356 334.054 271.722 336.048 270.101 337.674C268.479 339.301 266.712 340.681 264.799 341.816C262.886 342.951 260.646 344.219 258.079 345.621C255.512 347.023 253.109 348.195 250.87 349.138C248.631 350.082 246.412 350.852 244.213 351.45C242.014 352.047 240.027 352.396 238.253 352.497C236.479 352.597 234.749 352.648 233.063 352.648C231.377 352.648 229.529 352.644 227.52 352.637C225.511 352.63 223.584 352.526 221.738 352.327C219.893 352.127 218.191 351.954 216.634 351.809C215.077 351.664 213.651 351.58 212.356 351.556C211.062 351.532 209.726 351.73 208.35 352.15C206.974 352.571 205.527 353.348 204.01 354.484C202.493 355.62 201.125 356.703 199.906 357.734C198.688 358.764 197.618 359.842 196.695 360.967C195.772 362.091 194.813 363.482 193.817 365.139C192.822 366.796 192.008 368.479 191.377 370.189C190.746 371.898 190.243 373.625 189.869 375.37C189.495 377.115 189.299 378.972 189.281 380.942C189.263 382.911 189.76 385.149 190.772 387.654C191.784 390.159 192.989 392.673 194.387 395.196C195.784 397.718 197.111 399.72 198.366 401.201C199.622 402.682 200.871 403.806 202.115 404.572C203.358 405.339 204.712 406.106 206.176 406.873C207.639 407.64 209.026 408.276 210.337 408.782C211.648 409.287 212.738 409.606 213.606 409.738C214.475 409.869 215.437 409.686 216.492 409.188C217.548 408.689 218.488 408.171 219.31 407.633C220.133 407.095 220.928 406.355 221.694 405.415C222.46 404.474 223.27 403.482 224.125 402.439C224.979 401.395 225.772 400.114 226.505 398.596C227.237 397.077 227.904 395.438 228.503 393.677C229.102 391.916 229.705 390.117 230.312 388.278C230.918 386.44 231.414 384.555 231.799 382.625C232.185 380.695 232.562 378.628 232.93 376.426C233.298 374.224 233.642 371.768 233.962 369.06C234.282 366.351 234.49 363.426 234.587 360.282C234.684 357.139 234.937 353.766 235.344 350.163C235.752 346.56 236.056 343.417 236.256 340.735C236.457 338.053 236.466 335.356 236.284 332.645C236.102 329.934 235.724 327.094 235.149 324.126C234.574 321.157 234.178 318.395 233.96 315.838C233.741 313.282 233.527 311.038 233.317 309.108C233.106 307.177 232.893 305.23 232.677 303.266C232.461 301.302 232.261 299.619 232.077 298.217C231.894 296.815 231.802 295.797 231.802 295.163C231.802 295.797 231.802 295.797 231.802 295.163C231.802 294.528 231.802 294.528 231.802 295.163C233.052 291.711 235.552 291.711 236.177 292.961C236.593 293.794 236.802 294.211 236.802 294.211C236.802 294.211 236.801 294.301 236.801 294.482C236.8 294.663 236.784 295.027 236.751 295.572C236.719 296.118 236.625 296.769 236.471 297.523C236.316 298.278 236.138 299.221 235.938 300.353C235.738 301.485 235.403 302.821 234.933 304.361C234.464 305.902 233.728 308.097 232.728 310.949C231.727 313.8 230.4 317.255 228.745 321.314C227.091 325.372 225.348 328.688 223.518 331.26C221.687 333.833 219.895 335.889 218.14 337.431C216.386 338.972 214.551 340.31 212.636 341.446C210.721 342.581 209.191 343.145 208.047 343.136C206.903 343.127 205.613 342.993 204.177 342.733C202.741 342.473 201.5 342.019 200.454 341.371C199.407 340.724 198.587 340.015 197.993 339.247C197.4 338.478 196.723 337.59 195.963 336.582C195.202 335.574 194.48 334.301 193.796 332.765C193.112 331.228 192.682 329.542 192.508 327.707C192.333 325.872 192.456 324.029 192.876 322.178C193.296 320.327 193.951 318.279 194.841 316.035C195.73 313.791 196.679 311.906 197.685 310.382C198.692 308.858 199.722 307.525 200.776 306.384C201.829 305.243 203.094 304.613 204.569 304.494C206.044 304.376 206.914 304.448 207.178 304.712C207.441 304.976 207.709 305.334 207.981 305.787C208.253 306.24 208.454 306.753 208.585 307.326C208.715 307.898 208.877 308.68 209.07 309.672C209.264 310.663 209.37 311.852 209.39 313.24C209.41 314.627 209.32 316.105 209.12 317.674C208.92 319.242 208.703 321.126 208.469 323.323C208.236 325.521 207.776 327.944 207.089 330.59C206.403 333.237 205.52 335.742 204.441 338.106C203.361 340.469 202.016 342.681 200.406 344.74C198.795 346.799 197.032 348.439 195.117 349.66C193.202 350.882 191.107 351.749 188.832 352.262C186.558 352.775 184.489 352.826 182.627 352.415C180.764 352.004 179.086 351.256 177.591 350.173C176.096 349.09 174.856 347.939 173.871 346.719C172.886 345.5 172.205 344.315 171.826 343.166C171.448 342.016 170.972 340.349 170.398 338.163C169.825 335.977 169.452 333.543 169.279 330.861C169.106 328.179 169.212 325.092 169.599 321.6C169.985 318.107 170.565 314.659 171.34 311.256C172.114 307.853 173.139 304.892 174.413 302.372C175.688 299.852 177.012 297.717 178.387 295.966C179.762 294.216 181.09 292.778 182.37 291.652C183.65 290.526 185.239 289.641 187.137 288.997C189.035 288.354 190.679 288.122 192.069 288.303C193.459 288.484 194.689 288.784 195.758 289.204C196.828 289.623 197.879 290.151 198.912 290.788C199.945 291.424 200.724 292.096 201.249 292.803C201.775 293.51 202.346 294.371 202.963 295.387C203.58 296.403 204.061 297.301 204.407 298.082C204.061 297.301 204.061 297.301 204.407 298.082C204.753 298.863 204.753 298.863 204.407 298.082C201.686 302.893 202.508 303.058 201.431 302.168C201.09 299.691 200.868 298.881 200.767 299.738C200.666 300.596 200.452 300.504 200.124 299.463C199.796 298.422 199.679 297.859 199.774 297.772C199.869 297.685 199.763 297.158 199.458 296.191C199.152 295.225 198.744 294.283 198.233 293.366C197.722 292.45 197.367 291.764 197.169 291.31C196.97 290.855 196.68 290.494 196.297 290.226C195.914 289.959 195.442 289.861 194.879 289.932C194.316 290.003 193.558 290.176 192.603 290.452C191.649 290.727 190.365 291.298 188.753 292.166C187.14 293.034 185.501 294.125 183.834 295.437C182.167 296.75 180.639 298.204 179.248 299.8C177.858 301.396 176.535 303.166 175.281 305.109C174.026 307.052 173.081 309.264 172.445 311.745C171.809 314.226 171.189 316.436 170.583 318.374C169.977 320.313 169.404 322.02 168.864 323.495C168.323 324.971 167.83 326.496 167.384 328.07C166.938 329.644 166.402 331.369 165.778 333.245C165.154 335.121 164.364 337.045 163.408 339.019C162.452 340.992 161.371 342.511 160.164 343.575C158.957 344.64 157.696 345.261 156.378 345.436C155.061 345.612 153.905 345.55 152.91 345.252C151.916 344.953 150.933 344.512 149.962 343.928C148.991 343.343 148.032 342.56 147.084 341.578C146.137 340.596 145.334 339.347 144.675 337.832C144.016 336.317 143.599 334.574 143.424 332.604C143.249 330.634 143.272 328.601 143.493 326.504C143.715 324.407 143.93 322.226 144.14 319.96C144.349 317.694 144.589 315.322 144.859 312.843C145.129 310.365 145.211 308.26 145.106 306.527C145 304.795 144.757 303.12 144.378 301.502C143.999 299.884 143.392 298.653 142.555 297.807C141.719 296.962 141.007 296.29 140.419 295.791C139.83 295.293 139.019 294.828 137.985 294.396C136.951 293.965 135.769 293.619 134.44 293.359C133.11 293.099 131.926 292.764 130.888 292.352C129.85 291.94 128.808 291.445 127.764 290.867C126.719 290.288 125.935 289.666 125.412 289C124.889 288.334 124.578 287.348 124.477 286.044C124.376 284.74 124.568 283.748 125.052 283.068C125.536 282.388 126.136 281.709 126.852 281.03C127.567 280.351 128.58 279.665 129.891 278.972C131.201 278.279 132.638 277.868 134.202 277.741C135.766 277.614 137.22 277.796 138.564 278.286C139.908 278.777 140.897 279.39 141.529 280.127C142.161 280.864 142.718 281.871 143.201 283.149C143.684 284.427 143.925 285.871 143.925 287.48C143.925 289.09 143.896 291.022 143.839 293.274C143.781 295.527 143.512 298.165 143.032 301.188C142.551 304.211 141.943 307.305 141.208 310.469C140.473 313.633 139.422 316.722 138.057 319.736C136.692 322.749 135.279 325.605 133.819 328.302C132.359 330.999 130.741 333.282 128.965 335.152C127.19 337.023 125.403 338.532 123.606 339.681C121.808 340.83 119.77 341.924 117.492 342.962C115.214 344 112.966 344.541 110.749 344.585C108.533 344.629 106.585 344.397 104.906 343.888C103.226 343.379 101.853 342.694 100.786 341.835C99.7181 340.976 98.7391 340.016 97.8484 338.954C96.9577 337.893 96.1498 336.556 95.4247 334.943C94.6995 333.33 94.1424 331.693 93.7535 330.031C93.3646 328.369 92.9683 326.231 92.5648 323.618C92.1613 321.004 91.9728 318.507 91.9992 316.127C92.0257 313.747 92.151 311.47 92.3752 309.296C92.5995 307.122 92.9039 305.148 93.2884 303.374C93.6729 301.6 93.8994 300.11 93.9678 298.904C94.0361 297.698 94.0703 296.658 94.0703 295.785C94.0703 296.658 94.0703 296.658 94.0703 295.785C94.0703 294.911 94.0703 294.911 94.0703 295.785C95.3203 291.975 97.8203 291.975 98.4453 293.225C98.862 294.058 99.0703 294.475 99.0703 294.475C99.0703 294.475 99.0592 294.445 99.0371 294.386C99.0149 294.328 99.0101 294.683 99.0228 295.453C99.0355 296.223 98.9468 296.813 98.7568 297.224C98.5668 297.635 98.376 298.233 98.1845 299.019C97.993 299.805 97.7822 300.727 97.552 301.785C97.3219 302.842 96.9937 304.053 96.5675 305.417C96.1413 306.78 95.6781 308.015 95.1779 309.12C94.6777 310.226 94.143 311.799 93.5737 313.84C93.0044 315.881 92.2856 317.947 91.4173 320.039C90.549 322.13 89.6433 323.865 88.7002 325.242C87.7571 326.618 86.7944 328.058 85.8122 329.561C84.8299 331.063 83.8495 332.392 82.8708 333.546C81.8921 334.699 80.7317 335.826 79.3895 336.927C78.0473 338.027 76.6978 338.891 75.3411 339.517C73.9844 340.144 72.6196 340.54 71.2466 340.704C69.8735 340.869 68.6374 340.788 67.5381 340.462C66.4388 340.135 65.4074 339.634 64.4438 338.958C63.4803 338.282 62.7532 337.483 62.2626 336.559C61.7721 335.636 61.4057 334.531 61.1636 333.244C60.9215 331.957 60.7168 330.546 60.5497 329.009C60.3826 327.473 60.3486 325.756 60.4479 323.857C60.5471 321.959 60.869 320.082 61.4137 318.225C61.9583 316.369 62.4936 314.362 63.0195 312.205C63.5454 310.048 64.1833 307.885 64.9332 305.715C65.6831 303.546 66.433 301.021 67.1831 298.142C67.9332 295.264 68.4734 292.343 68.8037 289.382C69.1341 286.42 69.0873 283.596 68.6634 280.91C68.2395 278.223 67.8379 276.076 67.4586 274.468C67.0793 272.859 66.4495 271.399 65.5693 270.086C64.689 268.774 63.828 267.598 62.9861 266.561C62.1442 265.523 61.2943 264.658 60.4364 263.966C59.5785 263.275 58.7273 262.697 57.8828 262.233C57.0384 261.769 56.2671 261.362 55.5689 261.012C54.8708 260.661 54.0475 260.636 53.099 260.936C52.1505 261.236 51.1584 261.72 50.1227 262.389C49.087 263.059 48.0847 263.82 47.1156 264.675C46.1466 265.529 45.1652 266.707 44.1715 268.207C43.1778 269.708 42.2425 271.214 41.3655 272.727C40.4886 274.24 39.7811 275.91 39.243 277.736C38.705 279.563 38.2452 281.342 37.8637 283.075C37.4822 284.807 37.1003 286.637 36.7179 288.565C36.3355 290.494 36.0417 292.543 35.8365 294.712C35.6312 296.882 35.511 299.151 35.4758 301.52C35.4405 303.889 35.3008 306.293 35.0565 308.734C34.8122 311.174 34.6901 313.557 34.6901 315.884C34.6901 318.21 34.6897 320.312 34.6889 322.189C34.688 324.067 34.7201 325.742 34.7852 327.213C34.8503 328.684 34.9386 330.043 35.0503 331.291C35.162 332.539 35.1894 333.33 35.1327 333.664C35.076 333.998 35.1639 334.542 35.3965 335.296C35.6292 336.05 35.7455 336.515 35.7455 336.691C35.7455 336.515 35.7455 336.515 35.7455 336.691C35.7455 336.867 35.7455 336.867 35.7455 336.691C34.4955 339.455 31.9955 339.455 31.3705 338.205C30.9538 337.372 30.7459 336.892 30.7468 336.766C30.7477 336.64 30.8056 336.257 30.9205 335.617C31.0354 334.977 31.1687 334.535 31.3204 334.291C31.4721 334.047 31.6417 333.636 31.8294 333.06C32.017 332.483 32.2286 331.709 32.4641 330.738C32.6996 329.767 33.0034 328.69 33.3753 327.509C33.7473 326.328 34.0197 325.084 34.1926 323.777C34.3655 322.47 34.539 320.946 34.7133 319.204C34.8876 317.461 35.0629 315.533 35.2391 313.419C35.4153 311.305 35.4145 309.169 35.2367 307.013C35.0589 304.856 34.9025 302.354 34.7675 299.508C34.6325 296.661 34.2 292.927 33.4699 288.306C32.7399 283.685 32.3749 281.374 32.3749 281.374C32.3749 281.374 31.7077 278.833 30.3732 273.751C29.0387 268.668 28.7649 265.989 29.5516 265.715Z" fill="black" stroke="black"/>
<path id="path26" d="M91.821 277.852C90.9945 277.745 90.6385 275.622 90.753 271.484C90.8675 267.345 90.9247 265.276 90.9247 265.276C90.9247 265.276 91.4592 264.014 92.5282 261.491C94.1317 257.706 97.2234 261.687 95.9734 262.312C95.1401 262.729 94.6794 262.937 94.5914 262.937C94.6794 262.937 94.6794 262.937 94.5914 262.937C94.5035 262.937 94.0428 262.729 93.2095 262.312C92.3762 261.896 91.9595 261.271 91.9595 260.437C91.9595 259.604 92.3762 258.979 93.2095 258.562C94.0428 258.146 94.5035 257.937 94.5914 257.937C94.5035 257.937 94.5035 257.937 94.5914 257.937C94.6794 257.937 94.6794 257.937 94.5914 257.937C94.1317 257.706 97.2234 261.687 95.9734 262.312C95.9135 264.715 95.8835 265.917 95.8835 265.917C95.8835 265.917 95.413 267.933 94.4721 271.964C93.5312 275.996 92.6475 277.959 91.821 277.852Z" fill="black" stroke="black"/>
<path id="path27" d="M246.967 273.102C246.15 272.939 245.89 271.048 246.189 267.428C246.488 263.809 246.638 261.999 246.638 261.999C246.638 261.999 247.069 261.365 247.93 260.098C248.792 258.83 249.617 258.33 250.407 258.597C251.196 258.864 251.583 259.662 251.566 260.989C251.549 262.316 251.541 262.979 251.541 262.979C251.541 262.979 250.983 264.707 249.867 268.164C248.75 271.62 247.784 273.266 246.967 273.102Z" fill="black" stroke="black"/>
<path id="path28" d="M340.899 299.488C340.153 299.115 340.254 297.516 341.2 294.691C342.147 291.867 342.993 290.175 343.738 289.616C344.484 289.057 345.229 288.963 345.974 289.336C346.72 289.709 347.092 290.361 347.092 291.293C347.092 292.224 346.246 293.916 344.554 296.369C342.862 298.821 341.644 299.86 340.899 299.488Z" fill="black" stroke="black"/>
</g>
</g>
</svg>
